<svg width="267" height="247" viewBox="0 0 267 247" fill="none" xmlns="http://www.w3.org/2000/svg">
<mask id="mask0_125_1235" style="mask-type:luminance" maskUnits="userSpaceOnUse" x="0" y="0" width="267" height="247">
<path d="M243.089 0.254469L0.318359 26.5322L24.102 246.261L266.873 219.983L243.089 0.254469Z" fill="white"/>
</mask>
<g mask="url(#mask0_125_1235)">
<path d="M75.8033 184.88C75.1009 176.913 66.5346 156.048 72.0505 150.207C73.2154 148.986 73.8032 149.209 75.2897 148.403C79.2222 146.222 84.0108 145.362 88.5444 144.63C88.632 144.615 88.7229 144.602 88.8105 144.586L98.2471 135.826C100.567 135.453 106.007 134.222 108.328 133.847C109.227 133.701 114.415 132.349 115.312 132.203C131.209 129.639 133.895 126.597 149.791 124.03C150.916 123.847 159.094 121.308 160.219 121.125C164.692 120.403 168.389 118.701 172.86 117.981L180.538 116.706C181.787 116.503 187.776 114.624 189.041 114.453C193.05 113.912 216.399 108.235 220.265 109.297C225.349 110.694 229.931 139.866 229.96 145.104" fill="#FFFFF2"/>
<path fill-rule="evenodd" clip-rule="evenodd" d="M91.3956 87.2051C91.0332 86.0823 90.8099 84.9192 90.7308 83.7421C90.6465 82.4999 90.9729 81.2642 91.6598 80.2257C92.3864 79.2129 93.5047 78.5729 94.5893 77.9609C95.6139 77.386 96.6366 76.8112 97.6568 76.2368L97.8867 76.1325C98.4776 77.0791 99.0684 78.0245 99.6591 78.9691L108.449 93.0519C110.956 97.0695 113.464 101.088 115.975 105.107C118.395 94.7061 117.669 83.8203 113.887 73.8334C113.754 73.4814 113.619 73.1358 113.478 72.7878C113.277 72.3824 113.168 71.9377 113.157 71.4854C113.161 71.3973 113.174 71.3101 113.196 71.2248C113.327 70.8389 113.573 70.5026 113.9 70.2604C114.656 69.6246 115.577 69.2177 116.556 69.0873C117.535 68.957 118.53 69.1087 119.426 69.5249C120.322 69.9408 121.08 70.6037 121.612 71.4359C122.143 72.2678 122.426 73.2343 122.428 74.2219C154.817 70.1086 194.026 77.5683 213.765 103.464C209.928 102.399 205.904 102.622 201.927 103.158L201.913 103.062C202.223 102.259 201.758 101.317 201.047 100.836C200.335 100.354 199.435 100.244 198.575 100.227C196.765 100.194 194.971 100.52 193.193 100.843C191.936 101.074 190.637 101.319 189.583 102.037C188.528 102.755 187.767 104.077 188.108 105.307L188.117 105.358C183.68 106.077 179.244 106.794 174.808 107.51L174.763 107.231C172.546 103.646 170.329 100.061 168.11 96.4761L167.68 96.1991C168.449 95.9176 169.293 95.5607 169.624 94.8105C170.073 93.8033 169.289 92.5907 168.267 92.1765C167.246 91.7623 166.09 91.9176 165 92.0784C153.413 93.8055 141.826 95.5314 130.241 97.2561C127.675 97.6376 122.236 100.223 125.873 103.266C126.236 103.558 126.649 103.781 127.092 103.922L127.083 104.183L121.456 115.992L121.482 116.139C119.181 116.513 116.879 116.885 114.575 117.256L114.547 117.075C114.936 115.818 114.117 114.43 112.974 113.769C111.831 113.108 110.457 113.022 109.139 113.027C107.232 113.038 105.33 113.213 103.454 113.551C101.606 113.882 99.7327 114.399 98.2483 115.549C96.7639 116.699 95.3954 118.437 95.7447 120.283L95.7467 120.301L95.7211 120.305C95.7105 120.307 95.6995 120.309 95.6886 120.311L95.6747 120.313L95.6477 120.317L95.6147 120.323C95.5705 120.33 95.5263 120.337 95.4828 120.345C90.9856 121.072 86.2367 121.928 82.3361 124.106L82.306 124.054C76.1349 126.462 68.1041 130.642 64.9784 136.482C61.7543 142.512 63.2956 149.87 64.9151 156.514L64.8523 156.921C67.7513 157.361 70.9797 157.858 72.7233 160.202C73.0296 160.62 73.2809 161.075 73.4709 161.556C74.048 162.996 74.1509 164.651 74.2242 166.231C74.4857 171.749 74.7483 177.268 75.0126 182.786C75.0235 183.008 75.034 183.23 75.0446 183.453C75.0563 183.703 75.0681 183.952 75.0803 184.201C75.1423 185.507 75.1947 186.866 74.6835 188.066C73.7877 190.168 71.4326 191.226 69.2023 191.718L69.0142 191.756C59.2157 193.818 48.894 188.257 43.1678 180.027C37.4055 171.746 35.6209 161.292 35.6033 151.201C35.5879 141.077 37.2713 130.766 42.0469 121.84C46.8938 112.774 54.7117 105.56 63.4148 100.091C72.1179 94.6214 81.73 90.7788 91.3691 87.2141L91.3956 87.2051ZM131.181 76.4533C153.753 73.0661 177.592 79.1689 195.761 92.9841C195.961 93.1362 196 93.4217 195.848 93.6219C195.696 93.8221 195.41 93.8611 195.21 93.7087C177.237 80.0425 153.646 74.0031 131.317 77.3539C131.068 77.3911 130.836 77.2197 130.799 76.9712C130.761 76.7224 130.933 76.4907 131.181 76.4533ZM120.545 72.0228C120.452 71.7892 120.187 71.6752 119.954 71.7682C119.72 71.8612 119.606 72.1261 119.699 72.3597C122.489 79.3646 123.486 86.9551 122.601 94.4429C122.572 94.6926 122.75 94.9192 123 94.9485C123.249 94.9781 123.476 94.7995 123.505 94.5499C124.408 86.9117 123.391 79.1687 120.545 72.0228ZM98.3158 81.2407C98.5283 81.1064 98.8094 81.17 98.9437 81.3825C101.996 86.2168 105.047 91.051 108.098 95.8853C108.233 96.0978 108.169 96.3789 107.957 96.5132C107.744 96.6475 107.463 96.5839 107.328 96.3711C104.277 91.5371 101.226 86.7028 98.1737 81.8688C98.0394 81.6561 98.103 81.375 98.3158 81.2407ZM56.9188 153.711C56.8335 153.474 56.5724 153.352 56.336 153.437C56.0996 153.523 55.9772 153.784 56.0625 154.02C57.018 156.666 58.8696 158.894 61.2966 160.316C63.7233 161.739 66.5715 162.267 69.3469 161.808C69.595 161.767 69.7631 161.533 69.7221 161.285C69.6811 161.036 69.4467 160.869 69.1986 160.91C66.6332 161.334 64.0002 160.846 61.7569 159.531C59.5139 158.216 57.8021 156.157 56.9188 153.711Z" fill="#272727"/>
<path d="M239.039 128.54C240.338 131.266 240.597 134.385 240.37 137.398C240.154 140.304 239.481 143.228 237.971 145.72C236.477 148.193 234.085 150.204 231.272 150.838C230.947 148.797 230.609 146.76 230.256 144.727L230.178 144.482C230.232 144.467 230.287 144.449 230.34 144.431C232.4 143.75 235.747 142.835 236.468 140.788C236.949 139.42 236.612 137.912 236.246 136.51C235.067 131.968 233.65 127.491 231.998 123.099L232.316 122.979C235.285 123.531 237.742 125.814 239.039 128.54Z" fill="#272727"/>
<path d="M174.763 107.23L174.809 107.509C173.693 107.691 172.58 107.869 171.464 108.051L171.388 107.577C169.516 104.187 167.645 100.796 165.775 97.4059L165.611 96.9321C166.302 96.6925 166.993 96.4495 167.681 96.1983L168.111 96.4754C170.327 100.06 172.545 103.645 174.763 107.23Z" fill="#025253"/>
<path d="M171.388 107.577L171.464 108.051C155.696 110.603 139.927 113.155 124.158 115.705L124.15 115.654C125.914 111.95 127.678 108.245 129.443 104.54L129.453 104.295C132.59 104.401 136.542 103.433 138.597 103.18C147.796 102.052 156.851 99.9574 165.611 96.9318L165.775 97.4056C167.647 100.796 169.518 104.186 171.388 107.577Z" fill="#272727"/>
<path d="M129.454 104.295L129.444 104.541C127.678 108.246 125.913 111.951 124.151 115.655L124.16 115.706C123.269 115.851 122.374 115.993 121.484 116.139L121.458 115.992C123.334 112.055 125.21 108.119 127.085 104.183L127.094 103.922C127.858 104.16 128.653 104.286 129.454 104.295Z" fill="#025253"/>
<path d="M89.4361 61.5337C89.428 61.9054 89.3038 62.2649 89.0809 62.5624C88.8578 62.8597 88.5474 63.0798 88.1929 63.1917C87.2835 63.4489 86.2659 62.9285 85.8072 62.1036C85.6325 61.7842 85.5266 61.4316 85.4967 61.0687C85.7175 60.8544 85.8656 60.5767 85.9205 60.2741C85.9755 59.9714 85.9342 59.6592 85.8025 59.3813C85.553 59.9067 85.4476 60.489 85.4967 61.0687C85.2414 61.3561 84.8966 61.5494 84.5181 61.6173C83.5216 61.774 82.5387 61.1266 81.995 60.2757C81.4514 59.4248 81.2583 58.4047 81.0838 57.4134C80.4507 53.849 79.8915 50.2617 79.7412 46.6453C79.6545 44.6035 79.707 42.5219 80.3203 40.5752C80.9336 38.6286 82.1741 36.803 83.9855 35.8559C85.4215 35.1052 87.0847 34.9588 88.6731 34.6311C90.2614 34.3035 91.9213 33.7026 92.8488 32.3719C94.1754 30.4701 93.7971 27.3974 95.8127 26.2506C96.3201 25.9768 96.9031 25.8764 97.4728 25.9652C98.0424 26.0537 98.5674 26.3266 98.9673 26.7418C99.3549 27.1747 99.583 27.7275 99.613 28.3079C99.3965 28.8229 99.2558 29.3668 99.1955 29.9223C99.5123 29.4464 99.6592 28.8777 99.613 28.3079C99.9776 27.4065 100.62 26.645 101.448 26.1344C102.759 25.3606 104.616 25.4801 105.644 26.6052C106.673 27.7303 106.5 29.8063 105.178 30.56C106.443 30.0139 107.104 28.648 108.032 27.6257C108.959 26.6033 110.736 25.9625 111.62 27.0205C112.076 27.5634 112.085 28.3531 111.947 29.0489C111.485 31.3881 109.702 33.1595 107.544 34.2936L107.545 34.2966C106.687 34.7481 105.781 35.1031 104.845 35.3549C101.624 36.2286 98.211 36.195 94.9865 37.0603C91.762 37.9255 88.5224 40.0648 87.8508 43.3336C87.4126 45.4625 88.1459 47.6395 88.8657 49.6922C90.2502 53.6298 91.5794 57.5612 92.8992 61.4906L92.8844 61.4952C92.8964 62.48 92.2454 62.755 91.2621 62.7809C90.8681 62.7792 90.4835 62.6593 90.158 62.437C89.8326 62.2149 89.5812 61.9002 89.4361 61.5337ZM89.4358 61.5307C89.4345 61.3372 89.3919 61.1461 89.311 60.9703C89.3194 61.1628 89.3616 61.3528 89.4358 61.5307Z" fill="#272727"/>
<path d="M108.276 82.5088L108.255 82.5081C106.686 80.9133 105.119 79.3195 103.552 77.7268L103.539 77.6916C106.23 76.7776 108.899 75.8017 111.548 74.764L111.569 74.8197C111.396 77.1373 110.471 79.7068 110.298 82.0244C112.203 85.1882 114.971 88.1152 117.252 91.0217L117.346 91.0176C117.519 95.7543 117.059 100.493 115.977 105.107C113.47 101.09 110.961 97.0711 108.451 93.0519L108.454 93.0516C108.235 89.5432 108.175 86.0291 108.276 82.5088Z" fill="#025253"/>
<path d="M97.107 237.335L97.1063 237.357C93.9865 237.359 87.0927 235.883 84.0732 235.117C81.0537 234.35 78.1273 232.726 76.4307 230.11C75.028 227.951 74.5733 225.329 74.1518 222.789C72.4215 212.36 70.802 202.446 69.0686 192.016L69.016 191.757L69.2042 191.718C71.4345 191.227 73.7895 190.169 74.6853 188.066C75.1965 186.866 75.1441 185.507 75.0821 184.201C75.0591 183.732 75.0379 183.256 75.0144 182.786L75.0841 182.781C75.9578 182.62 76.8304 182.446 77.6977 182.251L77.7209 182.353C80.2197 196.243 82.7992 209.698 85.3006 223.585C86.0216 227.595 86.9143 231.921 89.9661 234.622C91.9514 236.379 94.4491 237.12 97.107 237.335Z" fill="#025253"/>
<path d="M82.2194 177.838C80.2446 175.182 76.5882 174.62 73.3049 174.122L73.376 173.661C71.5418 166.136 69.7962 157.803 73.4477 150.973C76.9879 144.36 86.0833 139.624 93.0726 136.897L93.1066 136.956C91.4368 137.867 89.9205 139.035 88.6131 140.416C82.4211 147.027 82.8327 157.25 83.6296 166.274L83.8177 166.478C83.7557 166.541 83.6969 166.607 83.6422 166.677C82.9498 167.54 82.725 168.681 82.5809 169.778C82.1553 172.971 82.3466 176.217 83.1443 179.339L83.0649 179.371C82.8497 178.826 82.5654 178.311 82.2194 177.838Z" fill="#025253"/>
<path d="M112.871 71.4551C111.411 70.2118 110.486 68.2882 110.928 66.4239C111.37 64.5596 112.354 62.872 112.944 61.05C114.353 56.7215 113.485 51.9799 112.056 47.6594C110.627 43.3389 108.644 39.1791 107.773 34.7127" stroke="#272727" stroke-width="0.910535" stroke-linecap="round" stroke-linejoin="round"/>
<path d="M89.4355 61.5342C89.5802 61.901 89.8316 62.2162 90.1571 62.4388C90.4826 62.6617 90.8675 62.7816 91.2618 62.7836C92.2449 62.7565 92.8959 62.4815 92.8841 61.4978" stroke="#272727" stroke-width="0.910535" stroke-linecap="round" stroke-linejoin="round"/>
<path d="M89.4348 61.5308C89.4336 61.3372 89.3912 61.1461 89.31 60.9703C89.3184 61.1629 89.3606 61.3526 89.4348 61.5308Z" stroke="#272727" stroke-width="0.910535" stroke-linecap="round" stroke-linejoin="round"/>
<path d="M89.4355 61.5308L89.4359 61.5342" stroke="#272727" stroke-width="0.910535" stroke-linecap="round" stroke-linejoin="round"/>
<path d="M85.4969 61.0688C85.527 61.4316 85.6326 61.7843 85.8074 62.1037C86.2656 62.9272 87.2851 63.4488 88.1931 63.1917C88.5476 63.0798 88.8582 62.8597 89.0811 62.5625C89.304 62.265 89.4282 61.9054 89.4363 61.5338" stroke="#272727" stroke-width="0.910535" stroke-linecap="round" stroke-linejoin="round"/>
<path d="M85.4973 61.0688C85.7181 60.8545 85.8662 60.5768 85.9211 60.2741C85.9761 59.9715 85.9348 59.6593 85.8031 59.3813C85.5539 59.9068 85.4482 60.4891 85.4973 61.0688Z" stroke="#272727" stroke-width="0.910535" stroke-linecap="round" stroke-linejoin="round"/>
<path d="M99.613 28.3094C99.583 27.729 99.3549 27.1761 98.9673 26.7432C98.5674 26.3281 98.0424 26.0552 97.4728 25.9667C96.9031 25.8779 96.3201 25.9782 95.8127 26.2521C93.797 27.3984 94.1754 30.471 92.8488 32.3733C91.9213 33.704 90.2614 34.3019 88.6731 34.6326C87.0847 34.9633 85.4218 35.1066 83.9855 35.8574C82.173 36.8046 80.9335 38.6267 80.3203 40.5767C79.7071 42.5267 79.6545 44.605 79.7412 46.6468C79.8915 50.2631 80.4507 53.8505 81.0838 57.4148C81.2583 58.4062 81.4514 59.4288 81.9948 60.2772C82.5381 61.1257 83.5216 61.7755 84.5181 61.6188C84.8966 61.5509 85.2414 61.3576 85.4967 61.0702" stroke="#272727" stroke-width="0.910535" stroke-linecap="round" stroke-linejoin="round"/>
<path d="M99.6127 28.3097C99.3962 28.8246 99.2555 29.3686 99.1952 29.924C99.512 29.4482 99.6589 28.8795 99.6127 28.3097Z" stroke="#272727" stroke-width="0.910535" stroke-linecap="round" stroke-linejoin="round"/>
<path d="M97.8874 76.1325C96.1708 71.245 94.5413 66.3692 92.899 61.4914C91.5792 57.5621 90.25 53.6307 88.8655 49.6931C88.1457 47.6404 87.4125 45.4637 87.8506 43.3345C88.5222 40.0657 91.7648 37.9288 94.9863 37.0612C98.2078 36.1935 101.624 36.2297 104.845 35.3558C105.781 35.104 106.687 34.749 107.545 34.2975L107.544 34.2945C109.702 33.1604 111.485 31.389 111.946 29.0498C112.085 28.354 112.076 27.5649 111.62 27.0214C110.736 25.9633 108.956 26.6045 108.031 27.6265C107.107 28.6485 106.443 30.0148 105.177 30.5609C106.5 29.8072 106.672 27.7309 105.644 26.6061C104.616 25.4813 102.759 25.3615 101.447 26.1353C100.62 26.6462 99.9774 27.4074 99.6129 28.3088" stroke="#272727" stroke-width="0.910535" stroke-linecap="round" stroke-linejoin="round"/>
<path d="M101.229 55.2539C101.914 55.4573 102.62 54.8227 102.764 54.1203C102.908 53.4178 102.654 52.7035 102.407 52.0311C101.413 49.3334 100.418 46.6367 99.4219 43.9411C99.1668 43.2485 98.9343 42.3976 99.4135 41.8328C99.6756 41.5752 99.9997 41.3897 100.354 41.2944C101.742 40.7993 103.129 40.3022 104.515 39.803" stroke="#272727" stroke-width="0.910535" stroke-linecap="round" stroke-linejoin="round"/>
<path d="M103.074 45.0054C103.34 44.5755 103.741 44.2457 104.214 44.0671C104.687 43.8883 105.205 43.8707 105.689 44.017" stroke="#272727" stroke-width="0.910535" stroke-linecap="round" stroke-linejoin="round"/>
<path d="M96.0894 46.9214C95.2235 46.2824 93.7869 46.7463 93.4549 47.7683" stroke="#272727" stroke-width="0.910535" stroke-linecap="round" stroke-linejoin="round"/>
<path d="M98.3636 61.6422C98.6665 61.9558 99.0369 62.1957 99.4467 62.3439C99.8566 62.4922 100.295 62.5446 100.728 62.4975C101.161 62.4503 101.578 62.3047 101.946 62.0717C102.315 61.8387 102.625 61.5245 102.853 61.1532" stroke="#272727" stroke-width="0.910535" stroke-linecap="round" stroke-linejoin="round"/>
<path d="M97.8873 76.1324C98.4782 77.0789 99.069 78.0243 99.6597 78.9689C102.588 83.6611 105.518 88.3554 108.449 93.0517C110.956 97.0693 113.465 101.088 115.975 105.107C118.396 94.706 117.669 83.8202 113.888 73.8332C113.755 73.4812 113.62 73.1356 113.478 72.7876C113.278 72.3822 113.168 71.9376 113.157 71.4852C113.161 71.3971 113.174 71.31 113.196 71.2246C113.327 70.8388 113.573 70.5024 113.901 70.2602C114.656 69.6245 115.577 69.2175 116.556 69.0872C117.535 68.9568 118.531 69.1085 119.427 69.5247C120.322 69.9407 121.08 70.6035 121.612 71.4357C122.143 72.2677 122.427 73.2342 122.428 74.2217C122.429 74.2583 122.43 74.2918 122.428 74.3287" stroke="#272727" stroke-width="0.910535" stroke-linecap="round" stroke-linejoin="round"/>
<path d="M97.6587 76.2367C96.6374 76.8113 95.6148 77.386 94.5913 77.9608C93.5066 78.5728 92.3883 79.2128 91.6617 80.2256C90.9749 81.2641 90.6485 82.4998 90.7327 83.7421C90.8118 84.9194 91.0351 86.0822 91.3976 87.205C91.4156 87.2586 91.4308 87.3144 91.4457 87.3677" stroke="#272727" stroke-width="0.910535" stroke-linecap="round" stroke-linejoin="round"/>
<path d="M99.6663 78.9656C100.962 78.5536 102.253 78.1292 103.54 77.6915C106.23 76.7775 108.9 75.8016 111.549 74.7639C112.33 74.4596 113.11 74.1492 113.89 73.833C113.898 73.8316 113.906 73.8288 113.914 73.8244" stroke="#272727" stroke-width="0.910535" stroke-linecap="round" stroke-linejoin="round"/>
<path d="M111.569 74.8196C111.395 77.1371 110.471 79.7067 110.297 82.0243" stroke="#272727" stroke-width="0.910535" stroke-linecap="round" stroke-linejoin="round"/>
<path d="M103.551 77.7266C105.118 79.3181 106.686 80.9119 108.253 82.5076" stroke="#272727" stroke-width="0.910535" stroke-linecap="round" stroke-linejoin="round"/>
<path d="M108.453 93.0516C108.235 89.5433 108.176 86.0289 108.277 82.5084L108.276 82.4993" stroke="#272727" stroke-width="0.910535" stroke-linecap="round" stroke-linejoin="round"/>
<path d="M110.297 82.0244C112.202 85.1882 114.97 88.1152 117.251 91.0216" stroke="#272727" stroke-width="0.910535" stroke-linecap="round" stroke-linejoin="round"/>
<path d="M91.3697 87.214C81.7306 90.7787 72.1187 94.6213 63.4154 100.09C54.712 105.56 46.8938 112.774 42.0475 121.839C37.2718 130.766 35.5886 141.078 35.6039 151.201C35.6215 161.291 37.4062 171.746 43.1684 180.027C48.8946 188.256 59.2163 193.818 69.0148 191.756L69.203 191.718C71.4333 191.226 73.7883 190.168 74.6841 188.066C75.1953 186.866 75.1429 185.507 75.0809 184.201C75.0578 183.732 75.0366 183.256 75.0132 182.786C74.7517 177.267 74.4891 171.749 74.2254 166.231C74.1521 164.652 74.0492 162.996 73.4722 161.557C73.2818 161.075 73.0306 160.62 72.7245 160.203C70.9809 157.858 67.7525 157.362 64.8535 156.921C64.8133 156.917 64.7727 156.909 64.7325 156.904C61.8033 156.464 58.4789 155.56 57.2353 152.871" stroke="#272727" stroke-width="0.910535" stroke-linecap="round" stroke-linejoin="round"/>
<path d="M73.5418 161.528C72.8372 158.771 72.6683 155.906 73.0444 153.086C73.1715 152.117 73.3706 151.108 73.9814 150.348C74.0297 150.287 74.0816 150.228 74.1364 150.173C74.7711 149.521 75.798 149.196 76.5811 149.633C77.1888 149.973 77.5039 150.657 77.7514 151.308C79.1166 154.897 79.5844 158.765 79.1147 162.577" stroke="#272727" stroke-width="0.910535" stroke-linecap="round" stroke-linejoin="round"/>
<path d="M75.0829 182.781C75.9565 182.62 76.8291 182.446 77.6965 182.251C82.9204 181.1 88.0093 179.403 92.8787 177.189C94.7632 176.379 96.5574 175.373 98.232 174.189C99.9103 172.997 101.285 171.427 102.244 169.606C102.458 169.243 102.566 168.829 102.559 168.409C102.504 167.786 101.991 167.283 101.423 167.024C100.258 166.497 98.9296 166.775 97.7056 167.228C97.4797 167.31 97.2576 167.401 97.0384 167.492C93.9464 168.794 91.0268 170.474 87.9722 171.865C84.9175 173.256 81.6655 174.367 78.3073 174.428" stroke="#272727" stroke-width="0.910535" stroke-linecap="round" stroke-linejoin="round"/>
<path d="M97.6311 167.022C98.8436 166.25 99.7296 165.059 100.12 163.676C100.297 163.052 100.355 162.344 100.019 161.785C99.6167 161.111 98.7336 160.849 97.9547 160.958C97.2224 161.108 96.5271 161.4 95.908 161.818C95.8737 161.84 95.8361 161.859 95.8019 161.881C93.045 163.541 90.3356 165.304 87.4176 166.66C84.4995 168.015 81.3268 168.964 78.107 168.889" stroke="#272727" stroke-width="0.910535" stroke-linecap="round" stroke-linejoin="round"/>
<path d="M95.8135 161.66C96.4269 160.952 96.9953 160.17 97.2144 159.262C97.4335 158.353 97.2299 157.29 96.5069 156.702C95.6297 155.985 94.3361 156.161 93.2562 156.507C90.7538 157.303 88.5311 158.765 86.2129 159.996C83.8947 161.227 81.7303 162.776 79.1141 162.577" stroke="#272727" stroke-width="0.910535" stroke-linecap="round" stroke-linejoin="round"/>
<path d="M122.331 74.2316L122.427 74.2212C154.816 70.1079 194.025 77.5676 213.764 103.463" stroke="#272727" stroke-width="0.910535" stroke-linecap="round" stroke-linejoin="round"/>
<path d="M227.11 138.913C223.271 140.168 220.949 141.107 215.636 141.515C214.767 141.581 212.29 142.018 211.679 142.642C211.069 143.267 210.724 144.223 211.062 145.026C211.586 146.285 215.318 147.014 216.675 146.916C221.773 146.55 225.353 146.06 230.179 144.483C230.233 144.468 230.289 144.45 230.342 144.432C232.402 143.751 235.749 142.836 236.469 140.79C236.95 139.422 236.613 137.913 236.248 136.512C235.069 131.97 233.651 127.493 232 123.1C231.921 122.883 231.837 122.669 231.756 122.452C230.703 119.691 229.456 116.831 227.099 115.05C226.118 114.31 224.612 113.845 223.721 114.634C223.685 114.668 223.645 114.706 223.61 114.744C222.929 115.471 223.091 116.616 223.299 117.592C223.978 120.785 224.655 123.978 225.331 127.171" stroke="#272727" stroke-width="0.910535" stroke-linecap="round" stroke-linejoin="round"/>
<path d="M212.95 134.908C217.368 134.662 221.705 133.335 225.955 132.017" stroke="#272727" stroke-width="0.910535" stroke-linecap="round" stroke-linejoin="round"/>
<path d="M225.032 127.266C219.666 127.868 214.059 128.555 209.596 131.596C208.837 132.112 208.04 132.93 208.312 133.808C208.579 134.667 209.67 134.9 210.571 134.934C211.365 134.964 212.155 134.956 212.94 134.909" stroke="#272727" stroke-width="0.910535" stroke-linecap="round" stroke-linejoin="round"/>
<path d="M213.788 134.83C213.508 134.842 213.227 134.869 212.95 134.909C212.948 134.912 212.944 134.909 212.941 134.909C211.286 135.167 209.756 135.941 208.568 137.123C207.946 137.749 207.405 138.613 207.637 139.464C207.95 140.605 209.38 140.948 210.561 141.031C215.912 141.404 221.377 140.453 227.093 138.853C227.158 138.834 227.223 138.818 227.288 138.798" stroke="#272727" stroke-width="0.910535" stroke-linecap="round" stroke-linejoin="round"/>
<path d="M73.9689 149.992C73.2652 142.024 72.9017 132.997 78.369 127.161C79.5237 125.941 80.8625 124.91 82.3365 124.106C86.236 121.929 90.986 121.073 95.4832 120.345C95.57 120.329 95.6602 120.316 95.7471 120.301L114.576 117.256C116.877 116.884 119.179 116.512 121.482 116.139C122.373 115.993 123.267 115.851 124.158 115.706C139.927 113.156 155.695 110.605 171.463 108.051C172.579 107.87 173.693 107.691 174.809 107.509C179.245 106.791 183.682 106.074 188.117 105.358L198.182 103.728C199.42 103.527 200.672 103.327 201.926 103.158C205.904 102.62 209.928 102.398 213.764 103.464C218.809 104.865 223.456 109.159 223.489 114.396" fill="#FFFFF2"/>
<path d="M73.9689 149.992C73.2652 142.024 72.9017 132.997 78.369 127.161C79.5237 125.941 80.8625 124.91 82.3365 124.106C86.236 121.929 90.986 121.073 95.4832 120.345C95.57 120.329 95.6602 120.316 95.7471 120.301L114.576 117.256C116.877 116.884 119.179 116.512 121.482 116.139C122.373 115.993 123.267 115.851 124.158 115.706C139.927 113.156 155.695 110.605 171.463 108.051C172.579 107.87 173.693 107.691 174.809 107.509C179.245 106.791 183.682 106.074 188.117 105.358L198.182 103.728C199.42 103.527 200.672 103.327 201.926 103.158C205.904 102.62 209.928 102.398 213.764 103.464C218.809 104.865 223.456 109.159 223.489 114.396" stroke="#272727" stroke-width="0.910535" stroke-linecap="round" stroke-linejoin="round"/>
<path d="M77.7199 182.352C80.2187 196.243 82.7982 209.697 85.2997 223.585C86.0206 227.594 86.9133 231.921 89.9651 234.622C91.9504 236.379 94.4481 237.119 97.106 237.335C99.6471 237.545 102.328 237.274 104.843 236.956C141.71 232.281 178.598 227.602 215.183 221.068C222.286 219.8 230.188 217.93 234.014 211.814C236.822 207.328 236.666 201.661 236.333 196.379C235.372 181.128 233.685 165.948 231.272 150.838C230.948 148.798 230.609 146.761 230.257 144.727" fill="#FFFFF2"/>
<path d="M77.7199 182.352C80.2187 196.243 82.7982 209.697 85.2997 223.585C86.0206 227.594 86.9133 231.921 89.9651 234.622C91.9504 236.379 94.4481 237.119 97.106 237.335C99.6471 237.545 102.328 237.274 104.843 236.956C141.71 232.281 178.598 227.602 215.183 221.068C222.286 219.8 230.188 217.93 234.014 211.814C236.822 207.328 236.666 201.661 236.333 196.379C235.372 181.128 233.685 165.948 231.272 150.838C230.948 148.798 230.609 146.761 230.257 144.727" stroke="#272727" stroke-width="0.910535" stroke-linecap="round" stroke-linejoin="round"/>
<path d="M82.3071 124.054C76.1359 126.462 68.1051 130.643 64.9795 136.483C61.7553 142.513 63.2966 149.871 64.9161 156.515" stroke="#272727" stroke-width="0.910535" stroke-linecap="round" stroke-linejoin="round"/>
<path d="M69.0684 192.016C70.8017 202.446 72.4212 212.359 74.1516 222.789C74.5731 225.329 75.0278 227.951 76.4304 230.11C78.127 232.726 81.0499 234.347 84.073 235.116C87.0961 235.885 93.9862 237.358 97.1061 237.356" stroke="#272727" stroke-width="0.910535" stroke-linecap="round" stroke-linejoin="round"/>
<path d="M95.7453 120.282C95.396 118.437 96.7614 116.699 98.2489 115.549C99.7363 114.399 101.606 113.881 103.454 113.55C105.331 113.213 107.233 113.038 109.139 113.027C110.458 113.023 111.835 113.11 112.974 113.769C114.114 114.427 114.936 115.818 114.547 117.075" stroke="#272727" stroke-width="0.910535" stroke-linecap="round" stroke-linejoin="round"/>
<path d="M188.11 105.306C187.769 104.076 188.527 102.752 189.584 102.036C190.642 101.32 191.937 101.073 193.195 100.842C194.973 100.519 196.766 100.193 198.577 100.226C199.437 100.244 200.334 100.354 201.048 100.835C201.763 101.316 202.225 102.258 201.915 103.061" stroke="#272727" stroke-width="0.910535" stroke-linecap="round" stroke-linejoin="round"/>
<path d="M121.458 115.992C123.334 112.055 125.209 108.119 127.085 104.183" stroke="#272727" stroke-width="0.910535" stroke-linecap="round" stroke-linejoin="round"/>
<path d="M124.151 115.654C125.915 111.95 127.679 108.245 129.444 104.54" stroke="#272727" stroke-width="0.910535" stroke-linecap="round" stroke-linejoin="round"/>
<path d="M171.388 107.577C169.516 104.187 167.645 100.796 165.775 97.4058" stroke="#272727" stroke-width="0.910535" stroke-linecap="round" stroke-linejoin="round"/>
<path d="M174.764 107.23C172.547 103.645 170.33 100.06 168.111 96.4751" stroke="#272727" stroke-width="0.910535" stroke-linecap="round" stroke-linejoin="round"/>
<path d="M167.681 96.1984C168.451 95.9169 169.294 95.56 169.625 94.8098C170.075 93.8026 169.29 92.59 168.268 92.1755C167.247 91.761 166.091 91.9169 165.001 92.0777C153.414 93.8048 141.827 95.5307 130.242 97.2554C127.676 97.6369 122.236 100.222 125.874 103.266C126.236 103.558 126.65 103.78 127.093 103.922C127.858 104.159 128.653 104.285 129.453 104.295C132.591 104.401 136.543 103.433 138.598 103.18C147.797 102.051 156.851 99.9569 165.612 96.9314C166.303 96.6925 166.995 96.4497 167.681 96.1984Z" stroke="#272727" stroke-width="0.910535" stroke-linecap="round" stroke-linejoin="round"/>
<path d="M232.318 122.979C235.287 123.531 237.744 125.814 239.04 128.54C240.337 131.266 240.598 134.385 240.371 137.398C240.155 140.303 239.482 143.227 237.972 145.72C236.479 148.192 234.086 150.203 231.273 150.838L231.192 150.855" stroke="#272727" stroke-width="0.910535" stroke-linecap="round" stroke-linejoin="round"/>
<path d="M45.7633 93.3462C41.9251 89.7805 36.9097 87.336 31.6729 87.1818C26.4362 87.0276 21.0428 89.3632 18.0712 93.6774C15.0995 97.9916 14.9642 104.249 18.225 108.35C21.0148 111.858 25.7246 113.374 30.2068 113.387C33.1327 113.396 36.6421 112.329 37.3237 109.483C38.0324 106.52 34.9678 103.843 31.954 103.404C30.0168 103.154 28.0486 103.473 26.2897 104.322C24.5305 105.171 23.0562 106.513 22.0463 108.185C19.7363 112.156 20.4671 117.154 21.63 121.598C22.7929 126.041 24.3314 130.627 23.411 135.128C22.4906 139.629 17.914 143.772 13.5663 142.288" stroke="#272727" stroke-width="0.910535" stroke-linecap="round" stroke-linejoin="round"/>
<path d="M229.193 78.1518C225.815 87.2172 226.994 97.8561 232.276 105.962C235.181 110.419 239.957 114.359 245.249 113.799C249.158 113.386 252.637 110.289 253.501 106.454C254.12 103.709 253.196 100.396 250.666 99.1632C246.945 97.3504 242.697 101.059 241.417 104.995C239.718 110.228 240.893 116.007 243.099 121.049C245.306 126.09 248.489 130.634 251.047 135.505C255.632 144.256 258.149 153.942 258.405 163.818C258.495 167.424 258.242 171.18 256.495 174.336C254.749 177.492 251.157 179.867 247.614 179.188C244.2 178.534 241.778 175.251 241.075 171.848C240.634 169.711 240.91 167.134 242.707 165.898C244.503 164.662 247.707 166.345 246.972 168.4" stroke="#025253" stroke-width="0.910535" stroke-linecap="round" stroke-linejoin="round"/>
<path d="M120.777 32.0288L128.445 31.1989" stroke="#272727" stroke-width="0.910535" stroke-linecap="round" stroke-linejoin="round"/>
<path d="M117.416 27.0257C122.511 22.5605 127.606 18.0953 132.701 13.63" stroke="#272727" stroke-width="0.910535" stroke-linecap="round" stroke-linejoin="round"/>
<path d="M113.642 23.7228C114.188 20.7563 114.735 17.7897 115.28 14.8232" stroke="#272727" stroke-width="0.910535" stroke-linecap="round" stroke-linejoin="round"/>
<path d="M73.0501 27.2587C71.5708 25.8813 69.6661 25.0498 67.6504 24.9014" stroke="#272727" stroke-width="0.910535" stroke-linecap="round" stroke-linejoin="round"/>
<path d="M68.7454 28.6315L71.635 22.2641" stroke="#272727" stroke-width="0.910535" stroke-linecap="round" stroke-linejoin="round"/>
<path d="M73.1231 78.5675L66.9492 74.6221" stroke="#272727" stroke-width="0.910535" stroke-linecap="round" stroke-linejoin="round"/>
<path d="M67.1324 80.456C68.7864 77.6008 70.44 74.7455 72.0936 71.89" stroke="#272727" stroke-width="0.910535" stroke-linecap="round" stroke-linejoin="round"/>
<path d="M176.434 53.8278C174.458 51.7867 172.123 50.1278 169.545 48.9346" stroke="#025253" stroke-width="0.910535" stroke-linecap="round" stroke-linejoin="round"/>
<path d="M170.696 54.4102C172.14 51.8795 173.585 49.3492 175.03 46.8185" stroke="#025253" stroke-width="0.910535" stroke-linecap="round" stroke-linejoin="round"/>
<path d="M136.986 55.1331L141.401 55.9629C141.439 55.9699 141.473 55.9882 141.499 56.0153C141.526 56.0424 141.544 56.0768 141.55 56.1141C141.556 56.1518 141.551 56.1901 141.535 56.2246C141.519 56.2588 141.493 56.2874 141.46 56.3063L137.565 58.5467C137.533 58.5649 137.508 58.5924 137.492 58.6252C137.475 58.658 137.469 58.695 137.474 58.7314L138.049 63.1874C138.054 63.2249 138.048 63.2633 138.03 63.2969C138.013 63.3304 137.985 63.3581 137.952 63.3756C137.918 63.3934 137.88 63.4 137.842 63.3955C137.805 63.3907 137.769 63.3745 137.741 63.349L134.406 60.3368C134.379 60.3123 134.345 60.2962 134.309 60.2907C134.273 60.2855 134.235 60.2909 134.202 60.3067L130.142 62.231C130.108 62.2469 130.069 62.2522 130.032 62.246C129.995 62.2395 129.96 62.2218 129.933 62.1953C129.906 62.1688 129.888 62.1347 129.881 62.0975C129.874 62.0602 129.878 62.022 129.894 61.9873L131.727 57.8859C131.742 57.8524 131.747 57.8152 131.741 57.7789C131.735 57.7427 131.718 57.7093 131.693 57.6826L128.608 54.4158C128.582 54.388 128.565 54.3533 128.56 54.3158C128.554 54.2782 128.56 54.2397 128.577 54.206C128.594 54.172 128.621 54.1438 128.654 54.1258C128.687 54.1075 128.725 54.0997 128.763 54.104L133.231 54.5807C133.267 54.5845 133.304 54.5775 133.337 54.5603C133.369 54.5435 133.396 54.5173 133.413 54.4851L135.568 50.5419C135.586 50.5086 135.614 50.4817 135.648 50.465C135.682 50.448 135.72 50.4419 135.758 50.4473C135.795 50.4529 135.83 50.4697 135.858 50.4958C135.885 50.5217 135.905 50.5554 135.912 50.5926L136.84 54.9882C136.847 55.0241 136.865 55.0571 136.891 55.0829C136.917 55.1087 136.95 55.1262 136.986 55.1331Z" fill="#272727"/>
<path d="M47.0243 61.6034L50.6423 62.1329C50.6728 62.1377 50.701 62.1516 50.7235 62.1727C50.7458 62.1939 50.7612 62.2214 50.7676 62.2515C50.7739 62.2816 50.7706 62.313 50.7587 62.3415C50.7465 62.3698 50.7261 62.3939 50.7001 62.4103L47.6066 64.3601C47.5814 64.3759 47.5611 64.3992 47.5491 64.4263C47.5371 64.4537 47.5331 64.4841 47.5383 64.5135L48.153 68.1184C48.1582 68.1489 48.1538 68.1802 48.1408 68.2083C48.1277 68.2363 48.1064 68.2595 48.0795 68.2751C48.0528 68.2905 48.0219 68.2972 47.9911 68.2947C47.9603 68.2919 47.931 68.2801 47.9072 68.2602L45.0965 65.9207C45.0736 65.9015 45.0454 65.8896 45.0157 65.8867C44.9862 65.8835 44.956 65.8892 44.9297 65.9032L41.6913 67.6014C41.664 67.6157 41.6327 67.6214 41.6023 67.6174C41.5716 67.6135 41.543 67.6003 41.5199 67.5794C41.4972 67.5589 41.4809 67.5318 41.474 67.5014C41.4672 67.4714 41.4693 67.4401 41.4809 67.4113L42.8371 64.0155C42.8477 63.988 42.8503 63.9577 42.8441 63.9289C42.8379 63.8999 42.8234 63.8735 42.8023 63.8527L40.187 61.2958C40.165 61.2743 40.1501 61.2465 40.144 61.2161C40.1382 61.1856 40.142 61.1544 40.1545 61.1262C40.167 61.0979 40.188 61.0742 40.2146 61.0583C40.2409 61.0424 40.2717 61.0349 40.3025 61.0371L43.9512 61.2778C43.9811 61.2798 44.0106 61.2727 44.0367 61.2579C44.0626 61.2429 44.0835 61.2207 44.0967 61.194L45.7182 57.9162C45.7322 57.8889 45.7539 57.8666 45.7809 57.852C45.8079 57.8374 45.8386 57.8313 45.869 57.8347C45.8993 57.8381 45.9281 57.8505 45.9513 57.8702C45.9746 57.8902 45.9911 57.9167 45.999 57.9464L46.8978 61.4908C46.9053 61.52 46.9212 61.5463 46.9439 61.5663C46.9664 61.5864 46.9944 61.5992 47.0243 61.6034Z" fill="#025253"/>
<path d="M49.3417 192.869C41.5141 189.435 35.6265 181.901 34.1855 173.476" stroke="#272727" stroke-width="0.910535" stroke-linecap="round" stroke-linejoin="round"/>
<path d="M237.738 152.792C239.947 150.852 241.689 148.439 242.837 145.733C243.985 143.027 244.508 140.097 244.367 137.161" stroke="#272727" stroke-width="0.910535" stroke-linecap="round" stroke-linejoin="round"/>
<g opacity="0.1">
<path d="M91.4246 38.3945C88.8073 39.6256 87.9122 42.4972 87.6196 45.1571C87.2133 48.8523 88.9164 52.4515 90.1056 55.8872C91.3975 59.6169 92.7426 63.3268 94.0812 67.0399C95.4341 70.7933 96.5371 74.8089 98.2373 78.4173C99.2818 80.6316 102.293 79.3318 101.702 77.0463C100.838 73.7084 99.3638 70.4329 98.1902 67.1896C97.0027 63.9109 95.8418 60.6221 94.6276 57.3529C93.4705 54.2341 92.2036 51.1469 91.1146 48.0037C90.6177 46.5694 90.0071 44.998 90.2053 43.4674C90.3488 42.0192 91.0605 40.6866 92.184 39.7619C92.8098 39.2121 92.29 37.9867 91.4254 38.3936L91.4246 38.3945Z" fill="#272727"/>
</g>
<g opacity="0.1">
<path d="M115.292 102.1C115.47 101.485 115.822 100.988 116.003 100.383C116.152 99.7982 116.272 99.2063 116.362 98.6093C116.555 97.5946 116.736 96.5833 116.844 95.5556C117.081 93.3786 117.167 91.1881 117.102 88.9993C117.029 86.759 116.825 84.5249 116.493 82.3084C116.161 80.1008 115.549 77.9424 115.246 75.7369C114.857 72.9085 110.449 74.1696 111.588 76.6413C113.312 80.3848 113.823 84.9834 114.15 89.059C114.315 91.1086 114.424 93.178 114.423 95.234C114.423 96.2984 114.435 97.3664 114.405 98.4301C114.389 98.9888 114.319 99.5517 114.324 100.11C114.329 100.738 114.509 101.332 114.475 101.968C114.457 102.076 114.483 102.187 114.547 102.276C114.611 102.365 114.708 102.425 114.816 102.443C114.925 102.461 115.036 102.435 115.125 102.371C115.214 102.306 115.274 102.209 115.292 102.101L115.292 102.1Z" fill="#272727"/>
</g>
<g opacity="0.1">
<path d="M77.9425 126.163C75.1825 126.392 72.4414 128.082 70.1852 129.59C67.5505 131.352 65.699 133.804 64.2749 136.616C61.2041 142.681 61.2843 150.109 64.3007 156.175C65 157.582 66.5279 158.423 68.0785 157.81C69.4465 157.27 70.4174 155.448 69.7139 154.033C67.3629 149.305 66.867 143.628 68.8848 138.681C69.7952 136.449 71.2371 134.412 72.7136 132.517C74.345 130.423 76.4827 129.32 78.5749 127.78C78.7281 127.66 78.8389 127.493 78.8901 127.305C78.9417 127.117 78.9312 126.918 78.8602 126.737C78.7892 126.555 78.6618 126.401 78.4966 126.298C78.3314 126.195 78.1375 126.147 77.9433 126.163L77.9425 126.163Z" fill="#272727"/>
</g>
<g opacity="0.1">
<path d="M69.0633 192.62C68.6594 194.86 69.6519 197.458 69.9361 199.694C70.222 201.943 70.4382 204.207 70.6594 206.463C71.1141 211.1 71.5375 215.709 72.7119 220.233C73.7686 224.304 75.9065 227.797 78.555 231.017C80.8122 233.761 84.1144 236.608 87.7188 237.269C89.657 237.624 90.4116 234.852 88.691 234.025C87.0547 233.238 85.4999 232.635 84.0636 231.478C82.7843 230.433 81.6541 229.217 80.7054 227.864C79.6531 226.388 79.0615 224.531 78.5114 222.807C77.881 220.849 77.3706 218.855 76.9832 216.835C76.1886 212.629 75.8727 208.351 75.3784 204.105C75.121 201.935 74.7293 199.783 74.2059 197.661C73.6992 195.584 73.2298 193.148 71.5894 191.651C70.6924 190.832 69.2616 191.521 69.0631 192.618L69.0633 192.62Z" fill="#272727"/>
</g>
</g>
</svg>
