<svg width="114" height="217" viewBox="0 0 114 217" fill="none" xmlns="http://www.w3.org/2000/svg">
<path d="M18.3209 13.187C70.7585 20.4701 107.363 68.8832 100.08 121.321C92.7973 173.758 44.3842 210.363 -8.05341 203.08C-60.491 195.797 -97.0959 147.384 -89.8128 94.9465C-82.5298 42.5089 -34.1166 5.90397 18.3209 13.187ZM-6.58699 192.522C40.0195 198.995 83.049 166.461 89.5222 119.854C95.9954 73.2479 63.461 30.2183 16.8545 23.7452C-29.752 17.272 -72.7815 49.8064 -79.2547 96.4129C-85.7279 143.019 -53.1935 186.049 -6.58699 192.522Z" fill="#D48168"/>
<path d="M14.4601 43.7885C50.1011 48.7387 74.981 81.6444 70.0308 117.285C65.0806 152.927 32.1749 177.806 -3.46618 172.856C-39.1072 167.906 -63.9871 135 -59.0369 99.3592C-54.0867 63.7182 -21.181 38.8384 14.4601 43.7885ZM-2.00704 162.35C27.8319 166.495 55.3807 145.665 59.5251 115.826C63.6694 85.9874 42.8398 58.4386 13.0009 54.2943C-16.838 50.1499 -44.3868 70.9795 -48.5312 100.818C-52.6755 130.657 -31.8459 158.206 -2.00704 162.35Z" fill="#DD7D5F"/>
<circle cx="4.92893" cy="108.215" r="33.6231" transform="rotate(-82.0928 4.92893 108.215)" fill="#DD7D5F"/>
</svg>
