<svg width="201" height="244" viewBox="0 0 201 244" fill="none" xmlns="http://www.w3.org/2000/svg">
<path fill-rule="evenodd" clip-rule="evenodd" d="M140.732 227.495C139.049 229.592 136.124 230.53 133.42 231.165C128.757 232.241 123.569 232.931 119.293 231.054C119.293 233.932 119.268 236.813 119.24 239.691H119.348L119.739 239.697C128.189 239.833 136.613 239.968 145.064 240.077C147.823 240.132 150.612 240.16 153.261 239.415C155.91 238.67 158.421 237.014 159.58 234.531L159.955 234.302C159.677 233.609 159.272 232.975 158.76 232.431C158.554 232.213 158.335 232.007 158.106 231.813C157.221 231.086 156.204 230.538 155.11 230.199C153.209 229.611 151.214 229.504 149.219 229.424C148.78 229.407 148.341 229.391 147.906 229.371C145.505 229.233 142.994 228.93 140.925 227.661L140.732 227.495ZM144.558 231.676C145.795 231.45 147.055 231.379 148.31 231.467H148.311C150.748 231.634 153.11 232.379 155.203 233.639C155.396 233.755 155.646 233.693 155.763 233.5C155.879 233.307 155.816 233.056 155.624 232.94C153.42 231.613 150.933 230.83 148.367 230.653C147.044 230.561 145.715 230.635 144.41 230.874C144.189 230.915 144.042 231.127 144.083 231.349C144.124 231.57 144.336 231.717 144.558 231.676Z" fill="#025253"/>
<path fill-rule="evenodd" clip-rule="evenodd" d="M80.0606 148.878C78.6967 154.362 77.3207 159.894 74.8904 165.021C72.4347 170.181 68.7926 174.985 63.826 177.827C55.852 182.407 45.8361 181.359 37.0342 178.655C36.9043 178.614 36.774 178.574 36.6433 178.533C34.3595 177.821 31.9857 177.081 29.6368 177.551C28.3709 177.809 27.1927 178.389 26.2154 179.234C26.2127 179.237 26.2071 179.24 26.2044 179.242L26.2292 179.273L26.243 179.289C24.1736 181 22.6836 183.649 21.4696 186.132C19.9796 189.203 18.5476 192.351 18.3738 195.607C18.3484 196.04 18.3495 196.474 18.3765 196.907C18.3903 197.13 18.4069 197.356 18.4345 197.583C18.472 197.973 18.5366 198.36 18.6276 198.742C18.8704 199.84 19.2043 200.604 19.6789 201.145C19.7581 201.235 19.8439 201.319 19.9355 201.396C21.029 202.34 22.7598 202.411 25.5527 202.525C26.5794 202.567 27.7498 202.615 29.085 202.715C60.8461 205.088 82.6741 198.659 91.4208 181.772C93.8213 177.165 94.9801 172.057 95.9734 166.925C95.9787 166.936 95.9837 166.948 95.9881 166.959C95.9906 166.966 95.993 166.973 95.9955 166.98C97.182 169.806 98.2829 172.51 99.3038 175.142C99.4914 175.625 99.6763 176.102 99.8584 176.58C100.041 177.057 100.22 177.529 100.396 178.003C100.484 178.236 100.572 178.471 100.659 178.707L100.661 178.713C100.923 179.419 101.18 180.122 101.431 180.823C101.851 181.99 102.256 183.152 102.648 184.308C103.04 185.464 103.415 186.615 103.779 187.771C103.781 187.772 103.782 187.774 103.782 187.776C106.34 195.869 108.288 204.059 109.963 213.975C110.553 217.388 111.281 221.022 112.725 224.14C112.879 224.468 113.036 224.791 113.207 225.106C114.234 227.117 115.759 228.833 117.636 230.089C118.151 230.431 118.696 230.726 119.264 230.972C119.272 230.974 119.283 230.98 119.291 230.983C123.563 232.845 128.739 232.155 133.391 231.082C136.095 230.447 139.047 229.509 140.703 227.412C140.955 227.094 141.177 226.752 141.365 226.391C142.827 223.549 141.696 220.1 140.537 217.093C135.584 204.155 130.676 191.367 125.765 178.572C121.245 166.798 116.724 155.018 112.164 143.113H112.142C109.943 143.017 107.881 142.914 105.819 142.81C103.751 142.707 101.684 142.603 99.4776 142.506H99.4224L98.6499 150.287L85.0222 150.867L85.0194 150.894L80.5964 148.604L80.2736 148.439L80.2515 148.428L80.1081 148.687L80.0606 148.878ZM110.973 147.866C110.886 147.659 110.646 147.561 110.439 147.649C110.231 147.737 110.134 147.976 110.222 148.183C120.695 172.999 130.221 198.164 138.799 223.679C138.87 223.893 139.102 224.008 139.315 223.936C139.529 223.864 139.644 223.633 139.572 223.42C130.987 197.885 121.455 172.7 110.973 147.866Z" fill="#272727"/>
<path d="M160.158 234.945C160.682 237.125 159.689 239.498 158.006 240.988C156.323 242.478 154.088 243.195 151.853 243.416C149.618 243.637 147.38 243.416 145.145 243.25C144.19 243.179 143.235 243.116 142.278 243.063C142.267 243.063 142.256 243.062 142.245 243.06C135.849 242.701 129.436 242.737 123.044 243.168C122.056 243.212 120.908 243.22 120.133 242.693C120.083 242.657 120.036 242.621 119.99 242.585C119.943 242.549 119.899 242.505 119.857 242.461C119.813 242.419 119.771 242.374 119.733 242.326C119.694 242.279 119.658 242.227 119.623 242.174C119.236 241.595 119.236 240.85 119.236 240.16C119.239 240.003 119.239 239.848 119.239 239.691H119.347C127.928 239.829 136.481 239.967 145.062 240.077C147.822 240.132 150.608 240.16 153.26 239.415C155.912 238.67 158.42 237.015 159.579 234.531L159.954 234.302C160.036 234.512 160.104 234.727 160.158 234.945Z" fill="#025253"/>
<path d="M120.135 242.693C120.91 243.22 122.058 243.212 123.046 243.167C122.055 243.234 120.907 243.228 120.135 242.693Z" fill="#025253"/>
<path d="M119.99 242.585C120.037 242.621 120.084 242.657 120.134 242.693C120.084 242.66 120.036 242.624 119.99 242.585Z" fill="#025253"/>
<path d="M119.732 242.326C119.771 242.373 119.812 242.418 119.857 242.461C119.812 242.419 119.77 242.374 119.732 242.326Z" fill="#025253"/>
<path d="M114.246 43.5149C114.287 43.4652 114.329 43.4128 114.37 43.3604C114.332 43.4128 114.29 43.4652 114.246 43.5149Z" fill="#272727"/>
<path d="M113.988 43.8267L114.223 43.5425C114.148 43.6363 114.068 43.7329 113.988 43.8267Z" fill="#272727"/>
<path d="M113.725 44.1354C113.805 44.0416 113.885 43.9478 113.967 43.854C113.89 43.9478 113.807 44.0416 113.725 44.1354Z" fill="#272727"/>
<path d="M113.455 44.4418C113.535 44.348 113.618 44.2569 113.701 44.1631C113.621 44.2569 113.538 44.348 113.455 44.4418Z" fill="#272727"/>
<path d="M112.666 137.567C112.503 139.391 112.34 141.245 112.15 143.069C112.147 143.066 112.147 143.061 112.144 143.058C107.729 142.865 103.866 142.644 99.4518 142.451H99.4297L99.9484 137.214L100.114 137.236C100.883 137.166 101.657 137.165 102.426 137.233L102.427 137.234C102.428 137.235 102.428 137.235 102.429 137.235C102.429 137.235 102.43 137.234 102.43 137.234C102.431 137.234 102.432 137.233 102.432 137.233C103.229 137.3 104.024 137.416 104.821 137.542C104.956 137.565 105.089 137.587 105.224 137.606C105.621 137.672 106.019 137.736 106.419 137.796C106.819 137.857 107.219 137.909 107.619 137.954C109.302 138.147 111.093 138.119 112.666 137.567Z" fill="#025253"/>
<path d="M107.617 137.954C109.328 138.119 111.121 138.092 112.667 137.54C112.667 137.548 112.664 137.559 112.664 137.568C111.091 138.119 109.3 138.147 107.617 137.954Z" fill="#025253"/>
<path d="M112.165 143.113H112.143C112.145 143.1 112.145 143.083 112.148 143.069C112.154 143.083 112.159 143.1 112.165 143.113Z" fill="#272727"/>
<path d="M109.665 42.8994C109.546 43.0567 109.433 43.2112 109.328 43.3602L109.37 43.294C109.463 43.1643 109.56 43.0319 109.665 42.8994Z" fill="#272727"/>
<path d="M105.223 137.606C105.62 137.669 106.02 137.736 106.417 137.796C106.017 137.736 105.62 137.672 105.223 137.606Z" fill="#025253"/>
<path d="M105.549 47.3609C107.686 47.5032 109.833 47.4108 111.95 47.0849C113.785 46.7856 115.587 46.3146 117.333 45.6778C117.901 45.4708 118.423 45.1571 118.873 44.7534C118.418 45.1706 117.885 45.494 117.306 45.7053C115.558 46.3389 113.756 46.8098 111.922 47.1125C111.74 47.1401 111.556 47.1677 111.371 47.1925C109.433 47.4671 107.472 47.5328 105.521 47.3885C102.781 47.2119 99.553 46.8007 97.6133 48.5584C99.5502 46.7676 102.795 47.1815 105.549 47.3609Z" fill="#272727"/>
<path d="M104.648 42.1075C105.404 41.6026 106.114 40.9762 106.825 40.5044C106.119 40.9845 105.41 41.6108 104.648 42.1075Z" fill="#272727"/>
<path d="M109.964 213.975C110.554 217.388 111.283 221.022 112.726 224.14C111.263 221.008 110.529 217.355 109.936 213.92C108.278 204.036 106.338 195.864 103.783 187.776C106.341 195.869 108.289 204.058 109.964 213.975Z" fill="#272727"/>
<path d="M103.506 101.833L99.9187 137.209V137.211L99.8911 137.209L99.3724 142.451H99.3669L98.5943 150.232L85.0273 150.809L89.3234 99.4601H89.3207L89.3234 99.438L103.506 101.833ZM95.8351 148.08L99.6704 113.422L91.5032 112.649L87.5575 148.245H87.5879L87.5851 148.273L95.8351 148.08ZM99.3669 106.082C99.3854 105.669 99.32 105.255 99.1743 104.868C99.0286 104.48 98.8059 104.126 98.5198 103.827C98.2337 103.527 97.8896 103.289 97.5088 103.126C97.1281 102.964 96.7183 102.88 96.3042 102.88C95.8903 102.88 95.4803 102.964 95.0995 103.126C94.7187 103.289 94.375 103.527 94.0888 103.827C93.8027 104.126 93.58 104.48 93.4343 104.868C93.2887 105.255 93.2233 105.669 93.2415 106.082C93.2417 106.299 93.263 106.515 93.3049 106.728C93.4084 107.309 93.673 107.85 94.0687 108.289C94.4644 108.727 94.9751 109.046 95.5426 109.208C95.5906 109.223 95.6395 109.235 95.6889 109.244C95.789 109.266 95.8906 109.283 95.9924 109.294C96.1999 109.316 96.4088 109.316 96.616 109.294C96.7181 109.283 96.8193 109.266 96.9195 109.244C96.9692 109.233 97.0188 109.222 97.0657 109.208C97.6336 109.046 98.1443 108.727 98.54 108.289C98.9356 107.85 99.2002 107.309 99.3034 106.728C99.3456 106.515 99.3669 106.299 99.3669 106.082Z" fill="#025253"/>
<path d="M103.506 101.833L89.3242 99.4381V99.4326L103.506 101.833Z" fill="#025253"/>
<path d="M102.648 184.308C103.04 185.464 103.415 186.615 103.78 187.771C103.415 186.618 103.038 185.463 102.648 184.308Z" fill="#272727"/>
<path d="M102.432 137.233C103.229 137.297 104.026 137.416 104.821 137.542C104.024 137.416 103.229 137.3 102.432 137.233Z" fill="#025253"/>
<path d="M100.113 137.236C100.883 137.165 101.656 137.164 102.425 137.234C101.656 137.165 100.883 137.166 100.113 137.236Z" fill="url(#paint0_linear_125_1065)"/>
<path d="M99.8594 176.58C100.041 177.057 100.221 177.529 100.397 178.003C100.221 177.532 100.041 177.057 99.8594 176.58Z" fill="#272727"/>
<path d="M99.9467 137.214L99.428 142.451H99.4004L99.9191 137.211L99.9467 137.214Z" fill="url(#paint1_linear_125_1065)"/>
<path d="M99.9475 137.209V137.214L99.9199 137.211V137.209L103.507 101.833L99.9475 137.209Z" fill="url(#paint2_linear_125_1065)"/>
<path d="M99.9194 137.212L99.4006 142.451H99.373L99.8918 137.209L99.9194 137.212Z" fill="url(#paint3_linear_125_1065)"/>
<path d="M112.142 143.113C107.738 142.92 103.884 142.7 99.4771 142.506H99.4219L99.4274 142.451H99.4495C103.864 142.644 107.727 142.865 112.142 143.058C112.145 143.061 112.145 143.066 112.147 143.069C112.145 143.083 112.145 143.1 112.142 143.113Z" fill="url(#paint4_linear_125_1065)"/>
<path d="M99.4296 142.451L99.4241 142.506H99.3965L99.402 142.451H99.4296Z" fill="#025253"/>
<path d="M98.6511 150.287L85.0234 150.867L98.5959 150.287L99.3961 142.506H99.4237L98.6511 150.287Z" fill="url(#paint5_linear_125_1065)"/>
<path d="M99.4023 142.451L99.3967 142.506H99.3691L99.3747 142.451H99.4023Z" fill="#025253"/>
<path d="M98.5959 150.287L85.0234 150.867L85.029 150.809L98.5959 150.232L99.3685 142.451H99.374L99.3685 142.506H99.3961L98.5959 150.287Z" fill="url(#paint6_linear_125_1065)"/>
<path d="M95.8359 148.08L87.5859 148.273L87.5887 148.246L95.8359 148.08Z" fill="url(#paint7_linear_125_1065)"/>
<path d="M94.5108 44.519C94.4556 44.577 94.4032 44.6349 94.3535 44.6956C94.3949 44.646 94.4391 44.5963 94.4832 44.5466C94.4918 44.5367 94.5009 44.5276 94.5108 44.519Z" fill="#272727"/>
<path d="M94.3533 44.6958C94.3036 44.7537 94.2539 44.8144 94.207 44.8779C94.2539 44.8144 94.3008 44.7537 94.3533 44.6958Z" fill="#272727"/>
<path d="M93.3066 106.728C93.4142 107.308 93.68 107.847 94.0751 108.284C94.4702 108.722 94.9787 109.042 95.5443 109.209C94.9768 109.046 94.4661 108.727 94.0704 108.289C93.6747 107.85 93.4101 107.309 93.3066 106.728Z" fill="url(#paint8_linear_125_1065)"/>
<path d="M93.549 46.0723C93.5269 46.1274 93.5048 46.1826 93.4883 46.2378C93.5076 46.1826 93.5269 46.1274 93.549 46.0723Z" fill="#272727"/>
<path d="M93.3353 46.7236C93.3132 46.7981 93.2967 46.8726 93.2773 46.9499C93.2967 46.8726 93.316 46.7981 93.3353 46.7236Z" fill="#272727"/>
<path d="M93.1895 62.9531C93.2308 62.9614 93.2695 62.9697 93.3109 62.9752C93.27 62.9705 93.2295 62.9631 93.1895 62.9531Z" fill="#272727"/>
<path d="M92.7383 62.7739C92.8779 62.8586 93.0308 62.9193 93.1908 62.9533C93.0302 62.9215 92.8768 62.8608 92.7383 62.7739Z" fill="#272727"/>
<path d="M109.797 42.7313C111.276 40.8606 113.585 38.6919 115.235 39.5527C116.289 40.0052 115.922 41.1586 115.031 42.472C114.832 42.7617 114.609 43.0597 114.369 43.3604C114.327 43.4129 114.286 43.4653 114.245 43.5149C114.236 43.526 114.228 43.5343 114.223 43.5425L113.988 43.8267C113.979 43.8347 113.972 43.8438 113.966 43.8543C113.883 43.9481 113.803 44.042 113.723 44.1358C113.715 44.1443 113.708 44.1534 113.701 44.1634C113.618 44.2572 113.536 44.3482 113.456 44.442C113.276 44.6462 113.094 44.8476 112.915 45.0435C112.905 45.0521 112.896 45.0612 112.887 45.0711C114.068 44.2075 115.244 43.8405 116.115 43.1204C116.162 43.0845 116.209 43.0431 116.256 43.0017C117.139 42.2016 118.767 41.7601 119.402 42.781C119.769 43.388 119.551 44.0171 119.076 44.5496C119.012 44.6217 118.944 44.6901 118.872 44.7538C118.423 45.1575 117.9 45.4712 117.332 45.6782C115.586 46.315 113.784 46.7862 111.949 47.0853C109.832 47.4112 107.685 47.5036 105.548 47.3613C102.794 47.1819 99.5492 46.768 97.6122 48.5588C97.5347 48.6264 97.461 48.6981 97.3915 48.774C97.3002 48.8689 97.2135 48.9682 97.1321 49.072C96.0836 50.3964 96.0009 52.1899 95.9457 53.873C95.8629 56.3011 95.7801 58.7567 95.6973 61.1876C95.6971 61.2494 95.6924 61.3112 95.6836 61.3725C95.6756 61.4329 95.6637 61.4928 95.6477 61.5518C95.6394 61.5794 95.6311 61.6098 95.6201 61.6374C95.598 61.6953 95.5732 61.7532 95.5483 61.8084C95.372 62.1191 95.1267 62.3851 94.8318 62.5865C94.5368 62.7877 94.1997 62.919 93.8459 62.97C93.8128 62.9756 93.7825 62.9783 93.7494 62.9838C93.6034 62.9976 93.4561 62.9949 93.3106 62.9756C93.2693 62.97 93.2306 62.9618 93.1892 62.9535C93.0295 62.9196 92.8763 62.8588 92.7367 62.7741C92.7036 62.7521 92.6677 62.73 92.6346 62.7052C91.6137 61.9326 91.9448 60.0812 93.0761 59.5845C92.138 59.9432 91.1999 60.7185 90.2893 60.2467C87.7233 59.1154 92.745 54.7559 92.9106 51.776C92.9878 50.3633 92.9354 48.8402 93.1782 47.4468C93.2058 47.2785 93.2389 47.1129 93.2775 46.9501C93.2968 46.8729 93.3134 46.7984 93.3355 46.7239C93.3796 46.5611 93.4293 46.3983 93.4872 46.2383C93.5038 46.1831 93.5259 46.1279 93.5479 46.0727C93.5755 46.001 93.6031 45.932 93.6335 45.8603C93.6942 45.7223 93.7604 45.5871 93.8349 45.4547C93.8652 45.3967 93.8984 45.3415 93.9315 45.2863C93.9591 45.2394 93.9866 45.1925 94.017 45.1484C94.0777 45.0546 94.1412 44.9663 94.2074 44.878C94.2543 44.8145 94.304 44.7538 94.3536 44.6959C94.4033 44.6379 94.4557 44.5772 94.5109 44.5193C94.5813 44.4426 94.656 44.3697 94.7344 44.3013C96.6051 42.6127 99.5685 42.8693 102.126 42.9741C102.893 42.9799 103.644 42.7573 104.284 42.334C104.408 42.265 104.53 42.1878 104.648 42.1078C105.41 41.6111 106.119 40.9848 106.825 40.5047C106.938 40.4274 107.049 40.3557 107.162 40.2867C107.672 39.9484 108.275 39.7784 108.886 39.8011C110.652 39.8011 110.018 42.2843 109.3 43.388C109.322 43.3577 109.344 43.3246 109.369 43.2942L109.328 43.3604C109.433 43.2114 109.546 43.0569 109.664 42.8996C109.709 42.8445 109.75 42.7865 109.797 42.7313Z" fill="#272727"/>
<path d="M89.3242 99.46L85.0281 150.809H85.0254L89.3215 99.46H89.3242Z" fill="url(#paint9_linear_125_1065)"/>
<path d="M89.3217 99.46L85.0256 150.809L84.998 150.811L89.2941 99.4627L89.3217 99.46Z" fill="url(#paint10_linear_125_1065)"/>
<path d="M86.4273 105.668L76.0527 103.213C76.0555 103.207 76.0583 103.199 76.061 103.193L86.4273 105.668Z" fill="url(#paint11_linear_125_1065)"/>
<path d="M85.0298 150.809L85.0242 150.867H85.0215L85.027 150.809H85.0298Z" fill="url(#paint12_linear_125_1065)"/>
<path d="M85.0253 150.809L85.0198 150.867H84.9922L84.9977 150.811L85.0253 150.809Z" fill="url(#paint13_linear_125_1065)"/>
<path d="M85.0206 150.867H85.0234L85.0206 150.894L80.5977 148.604L84.9931 150.867H85.0206Z" fill="#025253"/>
<path d="M84.9647 150.812H84.9978L84.9923 150.867L80.5969 148.605L80.274 148.439L80.252 148.428V148.425L80.274 148.384L84.9647 150.812Z" fill="#025253"/>
<path d="M77.1555 100.619L77.321 100.729L89.2932 99.4629L84.9971 150.812H84.964L80.2734 148.383L80.2513 148.425L74.1176 145.238L74.0624 145.21L73.9052 145.128L71.7723 144.024L71.6343 143.996V143.693C71.6288 143.654 71.6233 143.618 71.615 143.58C71.4616 143.017 71.1639 142.504 70.7514 142.092C69.7139 140.837 68.6351 139.648 67.4928 138.5C67.33 138.334 67.1644 138.172 66.9989 138.009L66.2539 137.954L66.7506 137.788C67.3289 137.532 67.8518 137.165 68.2902 136.709C68.3001 136.7 68.3095 136.69 68.3178 136.679C68.3674 136.627 68.4171 136.571 68.464 136.516L68.5164 136.544L79.694 144.631L86.4264 105.668L76.0601 103.193C76.1401 103.033 76.2201 102.876 76.3001 102.716C76.3517 102.653 76.3901 102.581 76.4135 102.503C76.4367 102.426 76.4442 102.344 76.4353 102.263C76.4381 102.183 76.4381 102.098 76.4409 102.018C76.4362 101.949 76.4456 101.88 76.469 101.815C76.4922 101.75 76.5286 101.69 76.5761 101.64C76.7692 101.309 76.9623 100.95 77.1555 100.619Z" fill="#025253"/>
<path d="M68.4646 136.516C68.4177 136.571 68.368 136.626 68.3184 136.679C68.368 136.626 68.4149 136.571 68.4618 136.516H68.4646Z" fill="#025253"/>
<path d="M67.4941 138.5C68.6364 139.648 69.7153 140.837 70.7528 142.092C69.7153 140.862 68.6337 139.651 67.4941 138.5Z" fill="#025253"/>
<path d="M55.9076 136.433C56.0718 136.72 56.2763 136.981 56.5147 137.209L56.3215 137.264C56.2625 137.463 56.2164 137.666 56.1836 137.871L56.1504 137.866L56.018 137.843L53.1484 135.909L53.1512 135.901L53.8106 132.267V132.184C54.3319 132.161 54.8542 132.18 55.3723 132.24V132.245C55.3599 132.266 55.3541 132.29 55.3558 132.314V132.322C55.2758 132.699 55.2242 133.082 55.2013 133.467C55.188 133.691 55.1872 133.916 55.1985 134.141C55.2371 134.953 55.4811 135.741 55.9076 136.433Z" fill="#025253"/>
<path d="M55.3841 132.239C55.3819 132.239 55.3799 132.24 55.378 132.241C55.3761 132.242 55.3744 132.243 55.373 132.245V132.239H55.3841Z" fill="#025253"/>
<path d="M55.3557 132.322V132.35C55.277 132.718 55.2252 133.092 55.2012 133.467C55.2238 133.082 55.2757 132.699 55.3557 132.322Z" fill="#025253"/>
<path d="M38.3601 105.669L30.5488 107.6L30.5516 107.592L38.3325 105.669C38.3325 105.669 46.9302 92.8355 64.4483 92.0464C46.9495 92.8493 38.3601 105.669 38.3601 105.669Z" fill="#025253"/>
<path d="M20.2839 176.42C20.9693 176.287 21.6776 176.338 22.3368 176.569C20.2729 177.752 18.4849 179.35 16.7246 180.917C13.9378 183.373 11.1786 185.828 8.3918 188.284C7.3709 189.195 6.34999 190.078 5.52224 191.154C4.66633 192.212 4.10483 193.478 3.89431 194.823C3.79442 196.281 4.1407 197.734 4.88762 198.99C5.60501 200.259 6.59832 201.308 7.64682 202.328L7.69372 202.488C7.27902 202.632 6.83147 202.653 6.40518 202.549C5.9684 202.394 5.58431 202.12 5.29598 201.757C5.24355 201.699 5.19389 201.636 5.14422 201.572C5.02558 201.421 4.91521 201.266 4.80484 201.114C4.00467 199.983 3.17691 198.879 2.37675 197.748C2.29673 197.638 2.21672 197.527 2.1367 197.414C2.05116 197.293 1.96839 197.166 1.88561 197.039C1.84698 196.981 1.81111 196.92 1.77524 196.862C1.73938 196.805 1.70351 196.744 1.66764 196.683C1.60417 196.573 1.54347 196.462 1.48829 196.352C1.13511 195.73 1.01012 195.004 1.13511 194.299C1.32825 193.416 2.01805 192.754 2.65267 192.119L16.8074 178.627C17.8283 177.661 18.9043 176.668 20.2839 176.42Z" fill="#025253"/>
<path d="M21.4689 186.105C22.6802 183.627 24.1674 180.984 26.2285 179.273L26.2423 179.29C24.1729 181 22.6829 183.649 21.4689 186.132C19.9789 189.203 18.5469 192.352 18.373 195.607C18.5386 192.343 19.9734 189.184 21.4689 186.105Z" fill="#025253"/>
<path d="M18.4349 197.583C18.4724 197.973 18.5367 198.36 18.628 198.742C18.8709 199.84 19.2047 200.604 19.6793 201.145C19.1882 200.604 18.846 199.831 18.6004 198.714C18.5232 198.347 18.468 197.98 18.4156 197.613L18.4349 197.61C18.4073 197.376 18.388 197.141 18.377 196.907C18.3907 197.13 18.4073 197.356 18.4349 197.583Z" fill="#272727"/>
<path d="M18.376 196.907C18.387 197.141 18.4063 197.376 18.4339 197.61L18.4146 197.613L18.4063 197.555C17.9648 193.582 19.6755 189.774 21.4414 186.077C22.6527 183.599 24.1399 180.953 26.2038 179.242L26.2286 179.273C24.1675 180.983 22.6803 183.627 21.469 186.104C19.9735 189.184 18.5388 192.343 18.3732 195.607C18.3481 196.04 18.3489 196.474 18.376 196.907Z" fill="#025253"/>
<path d="M18.214 197.638C15.0685 199.128 11.8954 200.618 8.74996 202.108C8.03257 202.467 7.20481 202.798 6.43224 202.577C5.97752 202.428 5.5802 202.142 5.29545 201.758C5.58379 202.12 5.96814 202.395 6.40465 202.549C6.83122 202.653 7.27848 202.632 7.69319 202.489L7.64628 202.329C6.59779 201.308 5.60448 200.259 4.88709 198.99C4.14045 197.734 3.7939 196.281 3.89378 194.824C4.10431 193.479 4.6658 192.213 5.5217 191.154C6.34946 190.078 7.37036 189.195 8.39127 188.284C11.1781 185.829 13.9373 183.373 16.724 180.917C18.4844 179.35 20.2724 177.753 22.3363 176.569C22.4715 176.613 22.6067 176.663 22.7419 176.718C22.8991 176.784 23.0564 176.859 23.2109 176.939C23.3213 176.997 23.4289 177.057 23.5393 177.121C23.5889 177.151 23.6414 177.181 23.6938 177.214C24.3157 177.607 24.9042 178.05 25.4541 178.539C25.5121 178.589 25.5673 178.638 25.6225 178.688C25.7853 178.834 25.948 178.978 26.1053 179.124L26.2046 179.243C24.1408 180.953 22.6536 183.599 21.4423 186.077C19.6764 189.774 17.9657 193.582 18.4072 197.555L18.4154 197.613L18.214 197.638Z" fill="#025253"/>
<path d="M1.77539 196.863C1.81126 196.921 1.84713 196.981 1.88576 197.039C1.84713 196.981 1.8085 196.923 1.77539 196.863Z" fill="#025253"/>
<path d="M1.66797 196.683C1.70384 196.744 1.73971 196.802 1.77558 196.862C1.73695 196.805 1.70108 196.744 1.66797 196.683Z" fill="#025253"/>
<path d="M104.886 74.7075C104.058 73.2175 104.555 71.6172 105.521 70.2376C106.486 68.858 107.866 67.8095 108.97 66.5403C111.149 64.0018 112.198 60.6356 112.474 57.2942C112.75 53.9528 112.336 50.6169 111.949 47.2783" stroke="#272727" stroke-width="0.815619" stroke-linecap="round" stroke-linejoin="round"/>
<path d="M93.0769 59.5845C91.9456 60.0811 91.6145 61.9325 92.6354 62.7051C92.6685 62.73 92.7044 62.752 92.7375 62.7741C92.8771 62.8588 93.0299 62.9195 93.19 62.9535C93.2314 62.9617 93.27 62.97 93.3114 62.9755C93.4568 62.9948 93.6039 62.9976 93.7501 62.9838C93.7832 62.981 93.8163 62.9755 93.8467 62.97C94.201 62.9217 94.5392 62.7915 94.8347 62.5901C95.1302 62.3884 95.3747 62.1207 95.5491 61.8084C95.577 61.7532 95.601 61.6958 95.6208 61.6373C95.6319 61.6097 95.6402 61.5794 95.6484 61.5518C95.6642 61.4927 95.6763 61.4329 95.6843 61.3724C95.6931 61.3112 95.6975 61.2494 95.6981 61.1876V61.0496" stroke="#272727" stroke-width="0.815619" stroke-linecap="round" stroke-linejoin="round"/>
<path d="M93.3797 59.5015C93.2693 59.5291 93.1865 59.5566 93.0762 59.5842" stroke="#272727" stroke-width="0.815619" stroke-linecap="round" stroke-linejoin="round"/>
<path d="M95.2832 74.8453V74.7901C95.4212 70.265 95.5591 65.7123 95.7247 61.1873C95.8075 58.7288 95.8902 56.3007 95.973 53.845C96.0282 52.1619 96.1386 50.3409 97.1595 49.044C97.234 48.9502 97.3112 48.8592 97.3912 48.7736C97.4608 48.6978 97.5344 48.6257 97.612 48.5584C99.5489 46.7677 102.794 47.1816 105.547 47.3609C107.685 47.5033 109.831 47.4109 111.949 47.085C113.783 46.7856 115.586 46.3146 117.332 45.6778C117.9 45.4709 118.422 45.1572 118.872 44.7535C118.944 44.6895 119.012 44.6213 119.076 44.5493C119.57 44.0113 119.801 43.3711 119.429 42.7531C118.794 41.7322 117.166 42.1736 116.283 42.9738C116.228 43.0235 116.173 43.0731 116.115 43.12C115.249 43.8209 114.106 44.1906 112.914 45.0432C113.094 44.8473 113.276 44.6459 113.455 44.4417C113.535 44.3479 113.618 44.2568 113.701 44.163C113.707 44.1531 113.715 44.144 113.723 44.1354C113.803 44.0416 113.883 43.9478 113.966 43.854C113.972 43.8435 113.979 43.8344 113.988 43.8264L114.222 43.5422C114.228 43.5339 114.236 43.5256 114.244 43.5146C114.286 43.4649 114.327 43.4125 114.369 43.3601C114.609 43.0593 114.832 42.7613 115.031 42.4716C115.936 41.1555 116.322 39.9966 115.263 39.5248C113.602 38.6584 111.256 40.8547 109.797 42.731C109.75 42.7862 109.708 42.8441 109.664 42.8993C109.546 43.0566 109.432 43.2111 109.328 43.3601L109.369 43.2939C110.067 42.1598 110.619 39.7731 108.914 39.7731C108.29 39.7527 107.676 39.9326 107.162 40.2863C107.048 40.3553 106.938 40.4271 106.825 40.5043C106.119 40.9844 105.409 41.6108 104.648 42.1074C104.529 42.1874 104.408 42.2647 104.284 42.3337C103.648 42.7393 102.908 42.952 102.154 42.9462C99.582 42.8414 96.6049 42.582 94.7341 44.301C94.6555 44.3694 94.581 44.442 94.5106 44.519C94.4555 44.5769 94.403 44.6348 94.3534 44.6955C94.3037 44.7562 94.254 44.8142 94.2071 44.8776C94.1409 44.9659 94.0774 45.0542 94.0167 45.148C93.9864 45.1922 93.9588 45.2391 93.9312 45.286C93.8981 45.3412 93.865 45.3964 93.8346 45.4543C93.7601 45.5868 93.6939 45.722 93.6332 45.8599C93.6029 45.9317 93.5753 46.0006 93.5477 46.0724C93.5256 46.1276 93.5035 46.1827 93.487 46.2379C93.429 46.398 93.3794 46.5608 93.3352 46.7235C93.3131 46.798 93.2966 46.8725 93.2773 46.9498C93.2387 47.1126 93.2055 47.2781 93.1779 47.4465C92.9407 48.8233 92.9986 50.3326 92.9379 51.748C92.7723 54.728 87.7506 59.0875 90.3167 60.2188C91.2272 60.6906 92.1653 59.9153 93.1035 59.5566" stroke="#272727" stroke-width="0.815619" stroke-linecap="round" stroke-linejoin="round"/>
<path d="M90.4006 79.3154C90.2075 78.46 90.0695 78.1013 90.1799 77.2184C90.2902 76.3355 90.7317 75.4525 91.5595 75.0662C92.1237 74.8587 92.7258 74.774 93.3254 74.8179H95.312C98.5044 74.8179 101.694 74.8455 104.886 74.8455H105.852C107.259 74.8455 108.722 74.8731 109.963 75.5629C111.166 76.2472 112.044 77.7702 111.495 79.0339C111.491 79.0455 111.487 79.0566 111.481 79.0671" stroke="#272727" stroke-width="0.815619" stroke-linecap="round" stroke-linejoin="round"/>
<path d="M90.2637 79.4532H90.4292C97.4376 79.7015 104.529 79.9223 111.454 79.0393C111.468 79.0366 111.482 79.0366 111.496 79.0338C113.275 78.8131 115.03 78.5123 116.782 78.1288C127.977 75.6433 138.081 69.6385 145.616 60.9942C147.603 58.7013 149.644 56.08 152.599 55.3902C152.846 55.3331 153.096 55.2887 153.347 55.2578C153.364 55.255 153.383 55.255 153.4 55.2523C154.208 55.1756 155.023 55.2457 155.806 55.4592C155.822 55.4647 155.839 55.4675 155.855 55.473C157.704 56.0149 159.305 57.1862 160.38 58.7841L160.397 58.8089C160.591 59.1036 160.77 59.4085 160.932 59.7222C162.422 62.7601 162.064 66.4574 160.684 69.5477C159.277 72.638 156.931 75.1765 154.421 77.439C143.353 87.3721 128.785 92.5594 114.134 95.291C114.106 95.2965 114.078 95.2993 114.051 95.3048C113.444 95.4096 112.834 95.5173 112.254 95.6221" stroke="#272727" stroke-width="0.815619" stroke-linecap="round" stroke-linejoin="round"/>
<path d="M153.316 55.0041C153.703 54.2316 153.509 53.2934 153.123 52.5209C152.737 51.7483 152.185 51.0585 151.826 50.2859C151.468 49.5133 151.299 48.5476 151.713 47.8026C152.213 46.9197 153.261 46.6162 154.282 46.4506C154.409 46.4206 154.538 46.4021 154.668 46.3954C155.827 46.2299 157.041 46.0643 158.172 46.3127C158.178 46.3127 158.184 46.3154 158.189 46.3154C158.429 46.364 158.664 46.4371 158.89 46.5334C159.489 46.7401 159.997 47.1501 160.325 47.6923C160.485 47.9629 160.571 48.2709 160.576 48.5854C160.581 48.9 160.504 49.2101 160.352 49.4857C159.938 50.148 159.055 50.3687 158.255 50.3963C157.869 50.3963 157.455 50.3963 157.069 50.4239C156.683 50.4184 156.3 50.4837 155.938 50.617" stroke="#272727" stroke-width="0.815619" stroke-linecap="round" stroke-linejoin="round"/>
<path d="M160.268 58.8119H160.351C160.365 58.8119 160.381 58.8091 160.395 58.8091C164.435 58.5222 168.311 60.3653 171.94 62.1809C177.32 64.8573 182.728 67.5613 188.109 70.2377C191.974 56.6597 195.829 43.0928 199.672 29.5368C199.8 29.2115 199.82 28.8534 199.728 28.5159C199.561 28.2207 199.312 27.9809 199.01 27.8261C194.761 25.2325 190.457 22.6112 185.874 20.6218C181.291 18.6325 176.327 17.3384 171.333 17.4764C169.65 17.5315 167.829 17.7799 166.559 18.8836C165.29 19.9872 164.793 21.7255 164.352 23.3562L160.13 39.0836C160.128 39.0974 160.122 39.114 160.119 39.1278C159.488 41.4869 158.858 43.8157 158.227 46.1472" fill="#FFFFF2"/>
<path d="M160.268 58.8119H160.351C160.365 58.8119 160.381 58.8091 160.395 58.8091C164.435 58.5222 168.311 60.3653 171.94 62.1809C177.32 64.8573 182.728 67.5613 188.109 70.2377C191.974 56.6597 195.829 43.0928 199.672 29.5368C199.8 29.2115 199.82 28.8534 199.728 28.5159C199.561 28.2207 199.312 27.9809 199.01 27.8261C194.761 25.2325 190.457 22.6112 185.874 20.6218C181.291 18.6325 176.327 17.3384 171.333 17.4764C169.65 17.5315 167.829 17.7799 166.559 18.8836C165.29 19.9872 164.793 21.7255 164.352 23.3562L160.13 39.0836C160.128 39.0974 160.122 39.114 160.119 39.1278C159.488 41.4869 158.858 43.8157 158.227 46.1472" stroke="#272727" stroke-width="0.815619" stroke-linecap="round" stroke-linejoin="round"/>
<path d="M157.068 50.4238C156.472 52.0537 156.049 53.7412 155.805 55.4594C155.802 55.4732 155.802 55.487 155.799 55.5007C155.799 55.5559 155.771 55.6111 155.771 55.6663" stroke="#272727" stroke-width="0.815619" stroke-linecap="round" stroke-linejoin="round"/>
<path d="M154.281 46.3126C154.197 44.6507 154.694 43.0118 155.688 41.6772C156.686 40.3442 158.122 39.4063 159.744 39.0283" stroke="#272727" stroke-width="0.815619" stroke-linecap="round" stroke-linejoin="round"/>
<path d="M114.05 95.2632V95.3184C115.595 106.004 116.59 116.761 117.03 127.549C117.168 130.666 117.058 134.226 114.767 136.323C114.156 136.872 113.443 137.295 112.668 137.567H112.665C111.092 138.119 109.301 138.147 107.618 137.953C107.218 137.909 106.818 137.854 106.418 137.796C106.018 137.738 105.621 137.672 105.223 137.606C105.088 137.587 104.956 137.564 104.82 137.542C104.023 137.415 103.228 137.3 102.431 137.233L102.43 137.234C102.429 137.234 102.429 137.234 102.428 137.234C102.428 137.234 102.427 137.234 102.427 137.234C102.426 137.234 102.426 137.234 102.425 137.233C101.656 137.165 100.883 137.166 100.113 137.236" stroke="#272727" stroke-width="0.815619" stroke-linecap="round" stroke-linejoin="round"/>
<path d="M112.695 137.567C112.53 139.416 112.336 141.265 112.171 143.113H112.143C107.74 142.92 103.885 142.699 99.4785 142.506" stroke="#272727" stroke-width="0.815619" stroke-linecap="round" stroke-linejoin="round"/>
<path d="M112.17 143.113C121.692 167.974 131.046 192.285 140.565 217.148C141.724 220.156 142.855 223.605 141.393 226.447C141.204 226.807 140.983 227.148 140.73 227.467C139.075 229.564 136.123 230.503 133.419 231.137C128.756 232.213 123.568 232.903 119.292 231.027C118.724 230.782 118.179 230.486 117.664 230.144C115.71 228.88 114.284 227.128 113.207 225.106C113.036 224.791 112.879 224.468 112.725 224.14C111.282 221.022 110.553 217.388 109.963 213.975C108.288 204.058 106.34 195.869 103.782 187.776C103.782 187.774 103.781 187.772 103.779 187.771C103.415 186.615 103.04 185.464 102.648 184.308C102.256 183.152 101.851 181.99 101.431 180.823C101.18 180.122 100.924 179.419 100.661 178.712C100.573 178.475 100.485 178.238 100.397 178.003C100.22 177.529 100.041 177.057 99.8585 176.58C99.6764 176.102 99.4915 175.625 99.3039 175.142C98.283 172.51 97.1821 169.806 95.9956 166.98C95.9895 166.962 95.9821 166.943 95.9735 166.925C95.67 166.18 95.3389 165.435 95.0078 164.663" stroke="#272727" stroke-width="0.815619" stroke-linecap="round" stroke-linejoin="round"/>
<path d="M80.1356 148.715C78.756 154.288 77.3764 159.89 74.918 165.049C72.4623 170.237 68.8202 175.01 63.8536 177.855C55.8795 182.435 45.8361 181.386 37.0618 178.682C34.6586 177.937 32.1201 177.082 29.6644 177.579C28.4026 177.849 27.2272 178.427 26.243 179.262C26.2375 179.265 26.2347 179.27 26.2292 179.273C24.1681 180.984 22.6809 183.627 21.4696 186.105C19.9741 189.184 18.5393 192.343 18.3738 195.607C18.3484 196.04 18.3495 196.474 18.3765 196.907C18.3903 197.13 18.4069 197.357 18.4345 197.583C18.472 197.973 18.5366 198.361 18.6276 198.742C18.8704 199.84 19.2043 200.604 19.6789 201.145C19.7581 201.235 19.8439 201.319 19.9355 201.396C21.4227 202.718 24.1157 202.373 29.1126 202.743C60.8737 205.088 82.7017 198.659 91.4484 181.8C93.8433 177.201 95.0022 172.105 95.9955 166.981C95.9983 166.972 95.9983 166.961 96.001 166.953C96.3873 164.911 96.7736 162.842 97.1875 160.828" stroke="#272727" stroke-width="0.815619" stroke-linecap="round" stroke-linejoin="round"/>
<path d="M66.2556 92.228C64.8663 94.2453 63.7268 96.4234 62.8618 98.7149C62.641 99.2667 62.4479 99.8186 62.2548 100.37C61.7305 101.86 61.2614 103.35 60.7924 104.868C58.6402 114.056 57.0123 122.72 55.3844 132.184C55.3855 132.194 55.3835 132.205 55.3788 132.214C55.3783 132.223 55.3764 132.231 55.3733 132.239V132.245C55.3645 132.267 55.359 132.29 55.3568 132.314V132.322C55.2765 132.699 55.2249 133.082 55.2023 133.467C55.1887 133.691 55.1879 133.916 55.1995 134.14C55.2425 134.943 55.4864 135.722 55.9086 136.406C56.0733 136.691 56.2778 136.952 56.5156 137.181C57.7573 138.34 59.7439 138.367 61.3442 138.588C63.0549 138.836 64.7656 138.423 66.2832 137.926L66.7798 137.76C67.3458 137.509 67.859 137.152 68.2919 136.709C68.3018 136.7 68.3109 136.689 68.3195 136.679C68.3691 136.626 68.4188 136.571 68.4657 136.516C68.474 136.508 68.4823 136.497 68.4905 136.488C68.5959 136.362 68.6936 136.229 68.783 136.091C68.7874 136.086 68.7913 136.081 68.7941 136.074C69.6218 134.86 69.9529 133.315 70.3116 131.77C71.8264 122.455 71.6912 113.165 75.3251 104.702C75.3278 104.694 75.3334 104.683 75.3361 104.675C75.5428 104.167 75.7768 103.67 76.0369 103.188C76.0425 103.177 76.048 103.168 76.0535 103.157L76.3018 102.661C76.3968 102.551 76.4453 102.408 76.437 102.263C76.4398 102.183 76.4398 102.098 76.4425 102.018C76.4332 101.94 76.4403 101.861 76.4635 101.786C76.487 101.712 76.5259 101.643 76.5778 101.584C76.7709 101.253 76.964 100.895 77.1572 100.564C78.8224 97.9553 80.8683 95.6105 83.2274 93.6076" stroke="#272727" stroke-width="0.815619" stroke-linecap="round" stroke-linejoin="round"/>
<path d="M90.4011 79.5084C84.9633 79.4508 79.6217 80.9438 75.002 83.8128C73.7013 84.6171 72.4652 85.521 71.3047 86.5168" stroke="#272727" stroke-width="0.815619" stroke-linecap="round" stroke-linejoin="round"/>
<path d="M109.355 50.8374C108.096 50.6448 106.822 50.5617 105.548 50.5891C105.28 50.5714 105.012 50.6288 104.775 50.7546C104.416 51.0305 104.416 51.5548 104.444 51.9962C104.637 54.2588 104.83 56.5489 105.023 58.8115C105.085 59.1917 105.048 59.5816 104.913 59.9427C104.794 60.1648 104.619 60.3525 104.407 60.4882C104.194 60.624 103.951 60.7032 103.699 60.7181C103.196 60.7465 102.693 60.6905 102.209 60.5525" stroke="#272727" stroke-width="0.815619" stroke-linecap="round" stroke-linejoin="round"/>
<path d="M106.68 53.7345C106.692 53.713 106.705 53.6929 106.721 53.6738C106.735 53.6518 106.751 53.6297 106.765 53.6104C106.779 53.5911 106.79 53.58 106.801 53.5635" stroke="#272727" stroke-width="0.815619" stroke-linecap="round" stroke-linejoin="round"/>
<path d="M106.801 53.5635C106.79 53.5773 106.777 53.5938 106.766 53.6104" stroke="#272727" stroke-width="0.815619" stroke-linecap="round" stroke-linejoin="round"/>
<path d="M106.801 53.5636C106.822 53.536 106.846 53.5101 106.873 53.4863" stroke="#272727" stroke-width="0.815619" stroke-linecap="round" stroke-linejoin="round"/>
<path d="M108.998 53.7899C108.898 53.5717 108.74 53.3862 108.539 53.2543C108.339 53.1225 108.106 53.0499 107.866 53.0449C107.68 53.0485 107.496 53.0893 107.325 53.1652C107.154 53.2408 107.001 53.3501 106.873 53.4864" stroke="#272727" stroke-width="0.815619" stroke-linecap="round" stroke-linejoin="round"/>
<path d="M101.272 53.4866C101.207 53.2228 101.065 52.9844 100.863 52.8026C100.661 52.6205 100.41 52.5032 100.141 52.4657C99.8765 52.4364 99.6097 52.4864 99.3738 52.6091C99.1379 52.7319 98.9439 52.922 98.8164 53.1555" stroke="#272727" stroke-width="0.815619" stroke-linecap="round" stroke-linejoin="round"/>
<path d="M100.968 64.2778C100.713 64.4061 100.429 64.4641 100.144 64.4453C99.8586 64.4268 99.5838 64.3325 99.3476 64.1721C99.1114 64.0118 98.9221 63.7914 98.7996 63.5334C98.6771 63.2754 98.6258 62.9896 98.6506 62.7051" stroke="#272727" stroke-width="0.815619" stroke-linecap="round" stroke-linejoin="round"/>
<path d="M26.1056 179.124C25.9484 178.977 25.7856 178.834 25.6228 178.688C25.5676 178.638 25.5097 178.588 25.4545 178.539C24.9048 178.05 24.316 177.607 23.6941 177.214C23.6417 177.181 23.5893 177.151 23.5396 177.12C23.4292 177.057 23.3216 176.996 23.2112 176.938C23.0567 176.858 22.8995 176.784 22.7422 176.718C22.6097 176.66 22.4773 176.61 22.3449 176.563C21.6752 176.327 20.9556 176.268 20.2561 176.392C18.8765 176.64 17.8005 177.661 16.7796 178.599L2.62487 192.092C1.96266 192.699 1.30046 193.389 1.10731 194.272C0.983423 194.988 1.11835 195.726 1.48808 196.352C1.54327 196.462 1.60397 196.573 1.66743 196.683C1.7033 196.744 1.73917 196.802 1.77504 196.862C1.81091 196.923 1.84678 196.981 1.88541 197.039C1.96818 197.166 2.05096 197.293 2.13649 197.414C2.20823 197.519 2.27721 197.621 2.34895 197.721C3.14912 198.852 3.97688 199.956 4.77704 201.087C4.89569 201.25 5.0171 201.415 5.14402 201.572C5.19368 201.636 5.24335 201.699 5.29578 201.757C5.58411 202.12 5.96846 202.394 6.40497 202.549C6.83154 202.653 7.27881 202.632 7.69351 202.488C8.04504 202.375 8.38883 202.238 8.7227 202.08C11.8682 200.59 15.0413 199.1 18.1867 197.61" stroke="#272727" stroke-width="0.815619" stroke-linecap="round" stroke-linejoin="round"/>
<path d="M119.291 230.834V231.055C119.264 234.09 119.236 237.125 119.236 240.16C119.236 240.85 119.236 241.595 119.623 242.174C119.658 242.227 119.694 242.279 119.733 242.326C119.771 242.374 119.813 242.419 119.857 242.461C119.899 242.505 119.945 242.547 119.99 242.585C120.034 242.624 120.083 242.657 120.133 242.693C120.908 243.22 122.056 243.212 123.044 243.168C129.437 242.751 135.848 242.715 142.245 243.06C142.256 243.062 142.267 243.063 142.278 243.063C143.236 243.115 144.191 243.178 145.145 243.25C147.38 243.416 149.615 243.637 151.853 243.416C154.09 243.195 156.323 242.478 158.006 240.988C159.689 239.498 160.682 237.125 160.158 234.945C160.104 234.727 160.036 234.512 159.954 234.302C159.676 233.609 159.271 232.975 158.759 232.432C158.554 232.212 158.336 232.006 158.105 231.813C157.22 231.08 156.203 230.523 155.109 230.172C153.213 229.562 151.221 229.471 149.232 229.394C148.787 229.38 148.346 229.363 147.904 229.344C145.476 229.234 142.965 228.93 140.924 227.633" stroke="#272727" stroke-width="0.815619" stroke-linecap="round" stroke-linejoin="round"/>
<path d="M71.7461 143.996L73.9065 145.128L74.0638 145.21L74.0776 145.219L74.119 145.238L80.2527 148.428L80.2748 148.439L80.5976 148.604L84.993 150.867M84.993 150.867L84.9985 150.812L89.2946 99.463L89.2974 99.4326L89.3249 99.4381L103.507 101.833L99.9203 137.209V137.212L99.4015 142.451L99.396 142.506L98.5958 150.287L85.0234 150.867H85.0206H84.993Z" stroke="#272727" stroke-width="0.815619" stroke-linecap="round" stroke-linejoin="round"/>
<path d="M89.2974 99.4326L77.2949 100.702" stroke="#272727" stroke-width="0.815619" stroke-linecap="round" stroke-linejoin="round"/>
<path d="M75.915 103.158L76.0254 103.185L76.0364 103.188L76.0612 103.194L86.4275 105.669L79.6951 144.631L68.5176 136.544" stroke="#272727" stroke-width="0.815619" stroke-linecap="round" stroke-linejoin="round"/>
<path d="M75.3905 104.73L83.8336 106.055L79.2257 141.182L68.7932 136.103L68.7822 136.092L68.7656 136.075" stroke="#272727" stroke-width="0.815619" stroke-linecap="round" stroke-linejoin="round"/>
<path d="M61.8114 100.233C60.1835 99.322 58.0313 100.233 56.9277 101.722C55.824 103.212 55.4653 105.116 55.1618 106.965C53.8649 114.801 52.5405 122.61 51.2437 130.446C51.1058 131.218 50.9954 132.018 50.8574 132.791C51.7936 132.43 52.7803 132.216 53.7822 132.156C54.307 132.134 54.8329 132.152 55.3549 132.212" stroke="#272727" stroke-width="0.815619" stroke-linecap="round" stroke-linejoin="round"/>
<path d="M50.9968 130.391C50.445 130.391 49.9207 130.391 49.3965 130.363C50.6105 120.209 52.0635 110.074 53.756 99.9566C56.5127 98.3706 59.7805 97.925 62.8614 98.715H62.9166" stroke="#272727" stroke-width="0.815619" stroke-linecap="round" stroke-linejoin="round"/>
<path d="M66.9993 138.009C67.1648 138.172 67.3304 138.334 67.4932 138.5C68.6355 139.648 69.7143 140.837 70.7518 142.092C71.1133 142.531 71.4995 143.019 71.6154 143.58C71.6237 143.618 71.6292 143.654 71.6347 143.693V143.996C71.568 144.444 71.361 144.858 71.0437 145.18C70.7264 145.503 70.315 145.716 69.8689 145.79C68.8755 145.955 67.9926 145.321 67.5235 144.438C67.0545 143.555 66.9993 142.893 66.8613 141.982" stroke="#272727" stroke-width="0.815619" stroke-linecap="round" stroke-linejoin="round"/>
<path d="M61.123 146.314H61.0127C59.0536 146.342 57.2602 144.907 56.4876 143.113C55.773 141.463 55.7978 139.626 56.151 137.865C56.1537 137.857 56.1537 137.852 56.1565 137.843C56.2117 137.65 56.2393 137.429 56.2945 137.236" stroke="#272727" stroke-width="0.815619" stroke-linecap="round" stroke-linejoin="round"/>
<path d="M59.3574 142.12C59.6411 143.4 60.1962 144.605 60.9853 145.652C61.104 145.812 61.2254 145.969 61.3523 146.118C61.7058 146.543 62.1003 146.933 62.5305 147.28C63.9929 148.439 66.1175 148.797 67.8006 147.942" stroke="#272727" stroke-width="0.815619" stroke-linecap="round" stroke-linejoin="round"/>
<path d="M63.2461 142.286C63.2461 144.686 65.3983 146.976 67.7436 147.749C67.7629 147.749 67.785 147.765 67.8181 147.771C67.8297 147.774 67.8418 147.776 67.8539 147.776C68.9825 148.142 70.2018 148.111 71.3104 147.69C72.419 147.268 73.3508 146.481 73.9518 145.459" stroke="#272727" stroke-width="0.815619" stroke-linecap="round" stroke-linejoin="round"/>
<path d="M53.7833 132.239L53.1211 135.881L53.1514 135.901L55.9907 137.816" stroke="#272727" stroke-width="0.815619" stroke-linecap="round" stroke-linejoin="round"/>
<path d="M87.5887 148.246L87.5859 148.273L95.8359 148.08L99.6712 113.422L91.504 112.677L87.5887 148.246Z" stroke="#272727" stroke-width="0.815619" stroke-linecap="round" stroke-linejoin="round"/>
<path d="M93.3067 106.728C93.2645 106.515 93.2433 106.299 93.2433 106.082C93.2248 105.669 93.2905 105.255 93.4362 104.868C93.5816 104.48 93.8042 104.126 94.0906 103.827C94.3768 103.528 94.7206 103.29 95.1013 103.127C95.4821 102.964 95.8918 102.88 96.306 102.88C96.7202 102.88 97.1299 102.964 97.5107 103.127C97.8914 103.29 98.2352 103.528 98.5216 103.827C98.8078 104.126 99.0304 104.48 99.1761 104.868C99.3215 105.255 99.3872 105.669 99.3687 106.082C99.3687 106.299 99.3475 106.515 99.3052 106.728C99.1979 107.308 98.9319 107.847 98.5368 108.285C98.142 108.722 97.6334 109.042 97.0675 109.209C97.0206 109.222 96.971 109.233 96.9213 109.244C96.8211 109.267 96.7199 109.283 96.6178 109.294C96.4106 109.316 96.2014 109.316 95.9942 109.294C95.8921 109.283 95.7909 109.267 95.6907 109.244C95.6413 109.235 95.5925 109.223 95.5445 109.209C94.9766 109.046 94.4659 108.727 94.0705 108.289C93.6748 107.85 93.4102 107.309 93.3067 106.728Z" stroke="#272727" stroke-width="0.815619" stroke-linecap="round" stroke-linejoin="round"/>
<path d="M169.484 24.4595C177.746 25.1029 185.823 27.2341 193.327 30.7504" stroke="#272727" stroke-width="0.815619" stroke-linecap="round" stroke-linejoin="round"/>
<path d="M167.967 31.4956C175.807 32.2147 183.448 34.3654 190.512 37.8418" stroke="#272727" stroke-width="0.815619" stroke-linecap="round" stroke-linejoin="round"/>
<path d="M165.926 38.9456C172.871 38.7745 179.719 40.6038 185.654 44.2156" stroke="#272727" stroke-width="0.815619" stroke-linecap="round" stroke-linejoin="round"/>
<path d="M56.7526 54.3774C55.7185 57.0798 53.6745 59.2742 51.0521 60.4973C47.8515 61.9045 44.1817 61.601 40.6775 61.2147C37.1734 60.8284 33.5561 60.387 30.2726 61.601C26.9892 62.7875 24.1748 66.2089 24.9474 69.6303" stroke="#272727" stroke-width="0.815619" stroke-linecap="round" stroke-linejoin="round"/>
<path d="M56.7531 54.3775C56.4904 54.3968 56.2264 54.3941 55.964 54.3692C54.2533 54.2037 52.5977 52.7137 52.6253 50.9754C52.6529 49.2371 54.8603 47.8024 56.2951 48.7957C57.4815 49.5958 57.5367 51.3065 57.2608 52.6861C57.1388 53.2631 56.9689 53.8287 56.7531 54.3775Z" stroke="#272727" stroke-width="0.815619" stroke-linecap="round" stroke-linejoin="round"/>
<path d="M59.3566 39.0559C60.6259 38.6144 62.1158 39.1939 62.9988 40.2148C63.8817 41.2357 64.2404 42.6153 64.3232 43.9673C64.404 45.5814 64.1212 47.1928 63.4954 48.683C62.8699 50.173 61.9174 51.5035 60.7086 52.576C59.5884 53.5334 58.1895 54.2729 56.752 54.3777" stroke="#272727" stroke-width="0.815619" stroke-linecap="round" stroke-linejoin="round"/>
<path d="M165.592 111.664C165.959 111.379 166.302 111.062 166.615 110.718C170.064 106.91 169.871 100.343 166.202 96.7261" stroke="#272727" stroke-width="0.815619" stroke-linecap="round" stroke-linejoin="round"/>
<path d="M165.591 111.664C165.357 110.031 164.617 108.383 163.249 107.49C161.814 106.551 159.579 106.745 158.641 108.207C157.537 109.973 159.055 112.511 161.069 112.953C162.639 113.298 164.278 112.685 165.591 111.664Z" stroke="#272727" stroke-width="0.815619" stroke-linecap="round" stroke-linejoin="round"/>
<path d="M138.248 130.694C138.386 126.997 141.173 123.548 144.76 122.637C148.816 121.589 153.123 123.576 157.262 122.913C162.283 122.113 166.201 116.953 165.622 111.904C165.614 111.824 165.603 111.744 165.592 111.664" stroke="#272727" stroke-width="0.815619" stroke-linecap="round" stroke-linejoin="round"/>
<path d="M123.238 26.3637C123.252 25.3952 123.266 24.435 123.28 23.4721C123.293 22.5146 123.307 21.5572 123.321 20.5942" stroke="#272727" stroke-width="0.815619" stroke-linecap="round" stroke-linejoin="round"/>
<path d="M120.617 23.9079C121.506 23.7589 122.391 23.6154 123.28 23.4719C124.185 23.3257 125.093 23.1794 125.998 23.0249" stroke="#272727" stroke-width="0.815619" stroke-linecap="round" stroke-linejoin="round"/>
<path d="M109.219 31.7439C108.854 31.1589 108.489 30.574 108.123 29.989C107.847 29.5531 107.569 29.1171 107.287 28.6812" stroke="#272727" stroke-width="0.815619" stroke-linecap="round" stroke-linejoin="round"/>
<path d="M106.652 31.3302C107.143 30.8832 107.632 30.4362 108.123 29.9892C108.57 29.5809 109.02 29.1725 109.467 28.7642" stroke="#272727" stroke-width="0.815619" stroke-linecap="round" stroke-linejoin="round"/>
<path d="M127.652 39.5251C127.884 39.0229 128.113 38.5208 128.345 38.0186C128.582 37.4999 128.822 36.9811 129.06 36.4624" stroke="#272727" stroke-width="0.815619" stroke-linecap="round" stroke-linejoin="round"/>
<path d="M129.721 39.0008C129.266 38.6752 128.805 38.3468 128.345 38.0185C127.909 37.7067 127.473 37.3922 127.045 37.0693" stroke="#272727" stroke-width="0.815619" stroke-linecap="round" stroke-linejoin="round"/>
<path d="M93.0508 144.603C93.6854 135.606 94.7615 126.611 96.279 117.726" stroke="#272727" stroke-width="0.815619" stroke-linecap="round" stroke-linejoin="round"/>
<path d="M75.916 134.999C77.2128 126.804 78.5373 118.609 79.8341 110.414" stroke="#272727" stroke-width="0.815619" stroke-linecap="round" stroke-linejoin="round"/>
<path d="M73.7051 126.169C74.5604 120.789 75.3909 115.409 76.2463 110.056" stroke="#272727" stroke-width="0.815619" stroke-linecap="round" stroke-linejoin="round"/>
<path d="M151.799 72.2796C152.13 71.0104 152.461 69.7136 152.82 68.4443" stroke="#272727" stroke-width="0.815619" stroke-linecap="round" stroke-linejoin="round"/>
<path d="M144.952 69.4374C144.124 69.1615 143.296 68.858 142.496 68.582L142.634 68.72" stroke="#272727" stroke-width="0.815619" stroke-linecap="round" stroke-linejoin="round"/>
<path d="M137.42 82.4055C137.889 81.3018 138.33 80.1706 138.8 79.0669" stroke="#272727" stroke-width="0.815619" stroke-linecap="round" stroke-linejoin="round"/>
<path d="M130.742 79.3153C130.028 78.929 129.235 78.7118 128.424 78.6807" stroke="#272727" stroke-width="0.815619" stroke-linecap="round" stroke-linejoin="round"/>
<path d="M123.928 89.3034L125.087 86.7373" stroke="#272727" stroke-width="0.815619" stroke-linecap="round" stroke-linejoin="round"/>
<path d="M116.12 84.9994C115.292 84.6131 114.437 84.2545 113.609 83.8682" stroke="#272727" stroke-width="0.815619" stroke-linecap="round" stroke-linejoin="round"/>
<path d="M104.113 93.8009C104.482 92.7723 105.076 91.8389 105.852 91.0693" stroke="#272727" stroke-width="0.815619" stroke-linecap="round" stroke-linejoin="round"/>
<path d="M110.984 105.889C110.267 105.448 109.549 105.034 108.832 104.592" stroke="#272727" stroke-width="0.815619" stroke-linecap="round" stroke-linejoin="round"/>
<path d="M104.914 115.436C105.383 114.691 105.825 113.973 106.294 113.229" stroke="#272727" stroke-width="0.815619" stroke-linecap="round" stroke-linejoin="round"/>
<path d="M113.581 124.762C112.943 124.072 112.309 123.41 111.646 122.72" stroke="#272727" stroke-width="0.815619" stroke-linecap="round" stroke-linejoin="round"/>
<path d="M103.451 133.205C104.003 132.515 104.527 131.826 105.079 131.136" stroke="#272727" stroke-width="0.815619" stroke-linecap="round" stroke-linejoin="round"/>
<path d="M91.0632 97.6086C90.4973 97.1765 90.0277 96.6316 89.6836 96.0083" stroke="#272727" stroke-width="0.815619" stroke-linecap="round" stroke-linejoin="round"/>
<path d="M85.793 85.7166C86.262 85.0268 86.7311 84.337 87.2002 83.6748" stroke="#272727" stroke-width="0.815619" stroke-linecap="round" stroke-linejoin="round"/>
<path d="M73.2635 99.6809C73.0428 98.8807 72.8221 98.0502 72.6289 97.25" stroke="#272727" stroke-width="0.815619" stroke-linecap="round" stroke-linejoin="round"/>
<path d="M62.668 107.738C63.3578 107.131 64.02 106.551 64.7098 105.944" stroke="#272727" stroke-width="0.815619" stroke-linecap="round" stroke-linejoin="round"/>
<path d="M69.2891 118.499C68.5515 117.678 67.963 116.735 67.5508 115.712" stroke="#272727" stroke-width="0.815619" stroke-linecap="round" stroke-linejoin="round"/>
<path d="M59.2188 130.915C59.8523 129.868 60.6019 128.896 61.4537 128.018" stroke="#272727" stroke-width="0.815619" stroke-linecap="round" stroke-linejoin="round"/>
<path d="M67.1647 127.3L66.0059 125.893" stroke="#272727" stroke-width="0.815619" stroke-linecap="round" stroke-linejoin="round"/>
<path d="M166.808 13.0612L166.643 5.28027" stroke="#272727" stroke-width="0.815619" stroke-linecap="round" stroke-linejoin="round"/>
<path d="M160.075 13.5856C156.681 9.2813 153.315 5.00454 149.918 0.700195" stroke="#272727" stroke-width="0.815619" stroke-linecap="round" stroke-linejoin="round"/>
<path d="M158.035 20.4559C155.552 19.7661 153.041 19.0763 150.555 18.4141" stroke="#272727" stroke-width="0.815619" stroke-linecap="round" stroke-linejoin="round"/>
<path d="M186.812 74.9007C189.572 75.6457 192.775 73.7143 193.382 70.8999" stroke="#272727" stroke-width="0.815619" stroke-linecap="round" stroke-linejoin="round"/>
<path d="M134.08 96.9742C141.181 95.2989 147.626 91.5538 152.597 86.2134" stroke="#272727" stroke-width="0.815619" stroke-linecap="round" stroke-linejoin="round"/>
<path d="M58.9707 207.571C65.1601 208.045 71.3131 206.272 76.3012 202.577" stroke="#272727" stroke-width="0.815619" stroke-linecap="round" stroke-linejoin="round"/>
<path d="M67.9375 211.185C69.3723 210.523 70.8347 209.861 72.2694 209.199" stroke="#272727" stroke-width="0.815619" stroke-linecap="round" stroke-linejoin="round"/>
<path d="M15.2073 198.465C13.8771 196.747 13.2552 194.585 13.469 192.423" stroke="#272727" stroke-width="0.815619" stroke-linecap="round" stroke-linejoin="round"/>
<path d="M11.4823 199.9C10.8061 199.482 10.2597 198.883 9.90408 198.172C9.54842 197.461 9.39749 196.664 9.46813 195.872" stroke="#272727" stroke-width="0.815619" stroke-linecap="round" stroke-linejoin="round"/>
<path d="M149.256 229.344L149.232 229.393C149.229 229.404 149.224 229.414 149.218 229.424C148.96 229.987 148.666 230.534 148.338 231.06C147.46 232.489 146.353 233.764 145.062 234.835" stroke="#272727" stroke-width="0.815619" stroke-linecap="round" stroke-linejoin="round"/>
<path d="M144.209 229.068C142.673 231.083 140.677 232.701 138.387 233.786" stroke="#272727" stroke-width="0.815619" stroke-linecap="round" stroke-linejoin="round"/>
<path d="M119.348 239.691C127.929 239.829 136.482 239.967 145.063 240.077C147.823 240.132 150.609 240.16 153.261 239.415C155.913 238.67 158.421 237.015 159.58 234.531" stroke="#272727" stroke-width="0.815619" stroke-linecap="round" stroke-linejoin="round"/>
<path d="M22.3528 176.558C22.35 176.56 22.3473 176.56 22.3445 176.563C22.3418 176.566 22.339 176.566 22.3363 176.569C20.2724 177.752 18.4844 179.35 16.724 180.917C13.9373 183.373 11.1781 185.829 8.39127 188.284C7.37036 189.195 6.34946 190.078 5.5217 191.154C4.6658 192.212 4.10431 193.478 3.89378 194.823C3.7939 196.281 4.14045 197.734 4.88709 198.99C5.60448 200.259 6.59779 201.308 7.64628 202.329" stroke="#272727" stroke-width="0.815619" stroke-linecap="round" stroke-linejoin="round"/>
<g opacity="0.1">
<path d="M103.182 46.9638C102.449 46.7759 101.686 46.7394 100.938 46.857C100.191 46.9743 99.4751 47.243 98.8353 47.6467C97.2653 48.6469 96.4027 49.9354 95.8553 51.7052C95.2259 53.7437 95.1606 55.9519 95.0129 58.0673C94.851 60.387 94.7544 62.7102 94.7406 65.0354C94.7282 67.184 94.8739 69.3331 94.857 71.4798C94.8507 72.2714 94.8198 72.9422 94.0897 73.3376C93.4076 73.7076 92.589 73.8041 91.9006 74.1866C91.2215 74.5588 90.6614 75.1145 90.2837 75.7902C89.7981 76.6767 89.8728 77.6367 89.5765 78.5657C89.1245 79.9831 86.3689 79.5833 85.1452 79.7704C80.6599 80.4913 76.4217 82.3069 72.8055 85.0564C71.1464 86.2981 72.7694 89.1301 74.4506 87.8708C78.522 84.8208 83.043 83.4577 88.0189 82.7663C89.9716 82.4953 92.0261 81.8731 92.8067 79.8691C93.1187 79.069 92.9319 77.717 93.6659 77.2057C94.4109 76.6881 95.4828 76.6348 96.2711 76.1296C98.3485 74.801 98.3985 72.3313 98.3259 70.1283C98.2376 67.4467 98.2379 64.7656 98.3074 62.0836C98.3794 59.2932 98.5508 56.5098 98.8217 53.7326C99.0425 51.482 99.799 47.7121 102.844 48.1836C103.631 48.3056 103.985 47.1922 103.181 46.9616L103.182 46.9638Z" fill="#272727"/>
</g>
<g opacity="0.1">
<path d="M67.5716 91.065C63.6072 92.7305 62.3192 98.2712 61.4208 102.01C60.1698 107.215 59.0292 112.45 57.9398 117.691C56.8591 122.89 55.7766 128.116 55.3768 133.422C55.1889 135.788 55.4135 138.168 56.0407 140.458C56.5925 142.513 56.744 144.31 58.213 145.983C59.1925 147.099 60.8155 145.465 59.8409 144.355C58.4754 142.8 58.2111 140.423 58.6421 138.456C59.0987 136.371 59.1128 134.237 59.3233 132.101C59.8026 127.24 60.8646 122.446 61.8698 117.672C62.8548 112.995 63.8597 108.32 64.9261 103.66C65.3287 101.714 65.8728 99.7995 66.554 97.9324C66.9177 96.9976 67.3777 96.1237 67.8117 95.2218C68.2336 94.3443 68.8235 93.5679 69.1626 92.6562C69.4838 91.7932 68.4607 90.6917 67.5716 91.065Z" fill="#272727"/>
</g>
<g opacity="0.1">
<path d="M111.767 95.8041C113.889 95.5539 116.028 95.3817 118.116 94.9118C120.304 94.3914 122.463 93.7593 124.586 93.0176C128.694 91.6162 132.719 89.9836 136.642 88.1278C140.609 86.272 144.521 84.261 148.294 82.0369C151.816 79.9611 155.29 77.5562 157.946 74.4113C159.434 72.6815 160.648 70.7352 161.549 68.6393C162.365 66.6999 163.013 64.2376 162.204 62.2068C161.845 61.307 160.493 60.8865 159.958 61.9132C158.89 63.9658 158.556 66.3061 157.462 68.3697C156.386 70.3575 154.989 72.1534 153.327 73.6845C149.624 77.1652 144.991 79.5238 140.539 81.8887C135.973 84.3543 131.258 86.5346 126.423 88.4175C124.009 89.338 121.56 90.1663 119.076 90.8768C116.515 91.6091 113.99 92.4639 111.395 93.0593C109.894 93.4039 110.181 95.9898 111.767 95.803V95.8041Z" fill="#272727"/>
</g>
<defs>
<linearGradient id="paint0_linear_125_1065" x1="101.269" y1="137.182" x2="101.269" y2="137.236" gradientUnits="userSpaceOnUse">
<stop stop-color="#FFB800"/>
<stop offset="1" stop-color="#FF7F0A"/>
</linearGradient>
<linearGradient id="paint1_linear_125_1065" x1="99.6735" y1="137.211" x2="99.6735" y2="142.451" gradientUnits="userSpaceOnUse">
<stop stop-color="#FFB800"/>
<stop offset="1" stop-color="#FF7F0A"/>
</linearGradient>
<linearGradient id="paint2_linear_125_1065" x1="101.713" y1="101.833" x2="101.713" y2="137.214" gradientUnits="userSpaceOnUse">
<stop stop-color="#FFB800"/>
<stop offset="1" stop-color="#FF7F0A"/>
</linearGradient>
<linearGradient id="paint3_linear_125_1065" x1="99.6462" y1="137.209" x2="99.6462" y2="142.451" gradientUnits="userSpaceOnUse">
<stop stop-color="#FFB800"/>
<stop offset="1" stop-color="#FF7F0A"/>
</linearGradient>
<linearGradient id="paint4_linear_125_1065" x1="105.785" y1="142.451" x2="105.785" y2="143.113" gradientUnits="userSpaceOnUse">
<stop stop-color="#FFB800"/>
<stop offset="1" stop-color="#FF7F0A"/>
</linearGradient>
<linearGradient id="paint5_linear_125_1065" x1="92.2236" y1="142.506" x2="92.2236" y2="150.867" gradientUnits="userSpaceOnUse">
<stop stop-color="#FFB800"/>
<stop offset="1" stop-color="#FF7F0A"/>
</linearGradient>
<linearGradient id="paint6_linear_125_1065" x1="92.2098" y1="142.451" x2="92.2098" y2="150.867" gradientUnits="userSpaceOnUse">
<stop stop-color="#FFB800"/>
<stop offset="1" stop-color="#FF7F0A"/>
</linearGradient>
<linearGradient id="paint7_linear_125_1065" x1="91.7109" y1="148.08" x2="91.7109" y2="148.273" gradientUnits="userSpaceOnUse">
<stop stop-color="#FFB800"/>
<stop offset="1" stop-color="#FF7F0A"/>
</linearGradient>
<linearGradient id="paint8_linear_125_1065" x1="94.4255" y1="106.728" x2="94.4255" y2="109.209" gradientUnits="userSpaceOnUse">
<stop stop-color="#FFB800"/>
<stop offset="1" stop-color="#FF7F0A"/>
</linearGradient>
<linearGradient id="paint9_linear_125_1065" x1="87.1748" y1="99.46" x2="87.1748" y2="150.809" gradientUnits="userSpaceOnUse">
<stop stop-color="#FFB800"/>
<stop offset="1" stop-color="#FF7F0A"/>
</linearGradient>
<linearGradient id="paint10_linear_125_1065" x1="87.1599" y1="99.46" x2="87.1599" y2="150.811" gradientUnits="userSpaceOnUse">
<stop stop-color="#FFB800"/>
<stop offset="1" stop-color="#FF7F0A"/>
</linearGradient>
<linearGradient id="paint11_linear_125_1065" x1="81.24" y1="103.193" x2="81.24" y2="105.668" gradientUnits="userSpaceOnUse">
<stop stop-color="#FFB800"/>
<stop offset="1" stop-color="#FF7F0A"/>
</linearGradient>
<linearGradient id="paint12_linear_125_1065" x1="85.0256" y1="150.809" x2="85.0256" y2="150.867" gradientUnits="userSpaceOnUse">
<stop stop-color="#FFB800"/>
<stop offset="1" stop-color="#FF7F0A"/>
</linearGradient>
<linearGradient id="paint13_linear_125_1065" x1="85.0087" y1="150.809" x2="85.0087" y2="150.867" gradientUnits="userSpaceOnUse">
<stop stop-color="#FFB800"/>
<stop offset="1" stop-color="#FF7F0A"/>
</linearGradient>
</defs>
</svg>
