<svg width="208" height="268" viewBox="0 0 208 268" fill="none" xmlns="http://www.w3.org/2000/svg">
<mask id="mask0_125_1320" style="mask-type:luminance" maskUnits="userSpaceOnUse" x="0" y="0" width="208" height="268">
<path d="M207.484 26.937L39.0547 0.325684L0.989263 241.25L169.418 267.861L207.484 26.937Z" fill="white"/>
</mask>
<g mask="url(#mask0_125_1320)">
<path fill-rule="evenodd" clip-rule="evenodd" d="M149.637 103.698C149.884 94.9638 148.947 86.66 143.561 82.0257L143.227 81.8883C140.13 89.445 135.947 96.545 131.192 103.282L131.515 103.507C131.561 106.721 131.702 110.233 131.843 113.744C131.984 117.255 132.125 120.765 132.171 123.979C132.214 126.816 132.456 130.116 134.321 131.411C135.454 132.199 136.938 131.972 138.178 131.189C139.419 130.407 140.455 129.13 141.402 127.808C146.184 121.138 149.391 112.432 149.637 103.698ZM144.807 89.7025C144.744 89.4803 144.514 89.3509 144.292 89.4133C144.069 89.4756 143.94 89.7063 144.002 89.9285C147.604 102.753 145.001 117.178 137.144 127.935C137.008 128.122 137.049 128.383 137.235 128.519C137.421 128.655 137.682 128.614 137.819 128.428C145.827 117.464 148.478 102.774 144.807 89.7025Z" fill="#025253"/>
<path fill-rule="evenodd" clip-rule="evenodd" d="M108.349 118.897C108.451 121.703 108.578 125.19 111.556 126.416C116.09 128.28 120.187 120.016 122.376 114.4C123.008 112.782 123.48 111.385 123.757 110.513C125.742 104.143 130.528 78.4553 120.385 77.9861C112.209 79.815 109.197 97.6669 108.461 104.981C108.211 107.978 108.139 110.983 108.184 113.984C108.205 115.346 108.252 116.709 108.316 118.07C108.329 118.336 108.339 118.613 108.349 118.897ZM123.468 84.6373C123.433 84.4092 123.22 84.2529 122.991 84.2878C122.763 84.3227 122.607 84.536 122.642 84.7638C124.612 97.6199 121.977 110.758 115.202 121.861C115.082 122.057 115.144 122.315 115.341 122.435C115.538 122.555 115.795 122.493 115.915 122.296C122.793 111.026 125.468 97.688 123.468 84.6373Z" fill="#025253"/>
<path fill-rule="evenodd" clip-rule="evenodd" d="M113.5 34.8172C124.693 39.9638 136.998 42.225 149.29 41.3938L149.611 41.3742C148.841 28.0846 145.022 17.6083 138.198 16.5302C128.53 15.0026 119.345 25.0958 113.379 34.7447L113.5 34.8172ZM138.802 18.6483C138.637 18.4876 138.372 18.4915 138.212 18.657C138.051 18.8225 138.055 19.087 138.22 19.2477C140.77 21.7234 142.744 24.7302 144.001 28.0545C145.258 31.3787 145.768 34.939 145.494 38.4825C145.477 38.7125 145.649 38.9134 145.879 38.931C146.109 38.9489 146.31 38.7767 146.327 38.5468C146.61 34.881 146.083 31.1979 144.783 27.7589C143.482 24.3199 141.44 21.2094 138.802 18.6483Z" fill="#025253"/>
<path d="M85.6031 118.579C85.0034 117.577 84.7361 116.305 84.5345 115.047C83.211 106.324 84.3722 97.4046 87.8849 89.3109C91.3732 81.3764 95.465 74.927 102.073 71.4679L102.267 71.4814C102.11 73.5821 102.008 75.689 101.955 77.7892C101.763 83.967 102.118 90.1496 103.017 96.2644C99.0444 103.189 95.073 110.114 91.1028 117.039C90.3547 118.348 89.4646 119.772 88.2345 120.045C87.2035 120.279 86.2025 119.586 85.6031 118.579Z" fill="#025253"/>
<path d="M102.074 71.4703C95.4659 74.9281 91.3741 81.3775 87.8855 89.3133C84.3728 97.407 83.2117 106.326 84.5352 115.05C84.7367 116.308 85.004 117.579 85.6038 118.582C86.2035 119.584 87.2044 120.281 88.2336 120.049C89.4637 119.775 90.3538 118.351 91.1019 117.043C95.0716 110.118 99.0429 103.193 103.016 96.268C103.02 96.257 103.025 96.2466 103.032 96.2368" stroke="#272727" stroke-width="0.835485" stroke-linecap="round" stroke-linejoin="round"/>
<path d="M143.561 82.0256C148.946 86.6599 149.884 94.9638 149.637 103.698C149.39 112.432 146.183 121.138 141.402 127.808C140.454 129.13 139.418 130.407 138.178 131.189C136.938 131.972 135.453 132.199 134.32 131.411C132.456 130.116 132.213 126.816 132.17 123.979C132.078 117.551 131.607 109.935 131.514 103.507" stroke="#272727" stroke-width="0.835485" stroke-linecap="round" stroke-linejoin="round"/>
<path d="M122.377 114.4C123.007 112.782 123.479 111.385 123.758 110.513C125.742 104.142 130.528 78.4553 120.386 77.9861C112.209 79.8151 109.197 97.6663 108.461 104.981C108.211 107.978 108.139 110.983 108.184 113.984C108.205 115.346 108.252 116.709 108.316 118.07C108.455 120.976 108.277 125.067 111.556 126.416C116.09 128.28 120.187 120.016 122.377 114.4Z" stroke="#272727" stroke-width="0.835485" stroke-linecap="round" stroke-linejoin="round"/>
<path d="M120.56 50.2876C118.501 52.5192 117.841 55.8768 118.662 58.8005C119.483 61.7242 121.677 64.1793 124.38 65.5592C125.831 66.2985 127.492 66.7557 129.088 66.4354C131.033 66.0443 132.586 64.561 133.741 62.9447C135.696 60.2062 136.839 56.6798 135.951 53.4332C134.27 47.3005 124.659 45.8412 120.56 50.2876Z" stroke="#272727" stroke-width="0.835485" stroke-linecap="round" stroke-linejoin="round"/>
<path d="M135.626 171.029C135.624 171.031 135.622 171.034 135.62 171.037C135.56 171.111 135.047 171.685 133.938 172.902C137.155 169.388 142.236 169.345 145.826 171.603C151.441 175.31 151.557 183.503 148.169 188.888C144.579 193.914 137.905 195.684 131.766 196.482C131.72 196.489 131.674 196.493 131.628 196.499C131.625 196.499 131.619 196.501 131.616 196.501" stroke="#272727" stroke-width="0.835485" stroke-linecap="round" stroke-linejoin="round"/>
<path d="M113.521 151.679C118.924 150.531 122.064 156.759 120.013 161.999C122.443 156.754 125.718 150.373 132.325 150.162C134.61 149.815 136.955 151.032 138.344 152.942C142.064 159.732 138.328 167.318 133.939 172.902C134.919 171.803 135.547 171.11 135.621 171.037" stroke="#272727" stroke-width="0.835485" stroke-linecap="round" stroke-linejoin="round"/>
<path d="M68.8424 191.107C68.8461 191.156 68.8493 191.207 68.85 191.255C69.5166 203.434 54.8996 200.203 51.1569 198.431C50.6193 198.177 50.0979 197.89 49.5955 197.572C42.918 193.354 39.7727 184.016 42.2802 176.587C43.7061 172.361 47.2129 168.74 51.6661 167.819C49.0318 164.883 47.1675 161.338 47.3046 157.311C47.3589 155.51 47.7712 153.739 48.5177 152.099C49.2642 150.459 50.3299 148.985 51.6523 147.762C57.069 142.884 66.0806 143.605 70.5823 149.335C73.0536 152.482 74.1198 156.761 73.1717 160.674C77.9517 152.847 86.2767 144.479 96.3869 147.204C98.7854 147.851 100.18 148.176 101.737 150.116" stroke="#272727" stroke-width="0.835485" stroke-linecap="round" stroke-linejoin="round"/>
<path d="M105.883 108.383C104.706 118.84 103.316 134.674 101.942 150.134C100.747 163.582 99.5648 176.741 98.5396 185.834" stroke="#272727" stroke-width="0.835485" stroke-linecap="round" stroke-linejoin="round"/>
<path d="M124.358 112.311C122.16 122.479 117.767 137.13 113.52 151.679C109.496 165.466 105.598 179.163 103.819 188.858" stroke="#272727" stroke-width="0.835485" stroke-linecap="round" stroke-linejoin="round"/>
<path d="M104.508 186.777C105.738 185.074 107.345 183.591 109.288 182.787C111.23 181.983 113.529 181.918 115.392 182.889C117.254 183.86 118.562 185.95 118.341 188.04" stroke="#272727" stroke-width="0.835485" stroke-linecap="round" stroke-linejoin="round"/>
<path d="M99.0526 189.76C99.1327 188.443 98.8822 187.128 98.3241 185.932C97.1924 183.442 94.8756 181.458 92.1678 180.985C88.1572 180.283 83.8369 182.987 82.7133 186.899" stroke="#272727" stroke-width="0.835485" stroke-linecap="round" stroke-linejoin="round"/>
<path d="M96.835 191.724C97.4897 190.989 98.269 190.376 99.1371 189.911C100.572 189.138 102.193 188.776 103.821 188.867C104.201 188.891 104.58 188.942 104.953 189.018C106.418 189.338 107.775 190.03 108.894 191.027C110.013 192.025 110.856 193.294 111.341 194.713" stroke="#272727" stroke-width="0.835485" stroke-linecap="round" stroke-linejoin="round"/>
<path d="M45.8909 150.02C48.0588 147.146 47.2533 142.503 44.2422 140.524C46.696 137.966 46.1117 133.188 43.115 131.295C40.1184 129.403 35.552 130.918 34.29 134.231C32.2746 131.873 28.3945 131.411 25.8812 133.227C23.3679 135.043 22.587 138.872 24.1921 141.527C21.7328 140.981 18.9509 142.207 17.8015 144.45C16.6521 146.693 17.3367 149.747 19.4067 151.188C21.4767 152.628 24.6695 152.155 26.1377 150.106C25.4931 152.313 27.9497 154.429 30.2481 154.369C32.2098 154.318 33.255 153.128 34.9468 152.501C36.9588 151.758 36.5152 152.067 38.6022 152.275C41.3608 152.552 44.035 152.488 45.8909 150.02Z" stroke="#272727" stroke-width="0.835485" stroke-linecap="round" stroke-linejoin="round"/>
<path d="M36.2466 161.662C34.9012 159.829 32.0414 159.337 30.1641 160.619C28.2869 161.902 27.6959 164.74 28.9113 166.664C30.1266 168.588 32.9445 169.275 34.9079 168.125C36.8713 166.975 37.6564 164.184 36.5768 162.184" stroke="#272727" stroke-width="0.835485" stroke-linecap="round" stroke-linejoin="round"/>
<path d="M12.0729 217.174C11.2089 217.352 10.401 217.736 9.71719 218.293C9.23977 218.682 8.85278 219.17 8.58342 219.724C8.31379 220.278 8.16808 220.884 8.15627 221.5C8.17009 223.732 10.2155 225.487 12.3542 226.118C16.1686 227.242 20.6389 225.5 22.6843 222.087C22.404 223.331 23.0764 224.655 24.108 225.404C25.1397 226.153 26.4563 226.404 27.7301 226.408C32.1903 226.422 36.4955 223.351 37.935 219.129C38.6446 217.047 38.5927 214.485 37.0228 212.949C38.3544 214.084 40.545 213.868 41.7982 212.646C43.0514 211.424 43.3702 209.424 42.7875 207.776C42.2048 206.128 40.8253 204.833 39.2341 204.099C37.643 203.366 33.9053 200.999 28.9636 203.889" stroke="#272727" stroke-width="0.835485" stroke-linecap="round" stroke-linejoin="round"/>
<path d="M12.0761 217.174C12.4277 217.175 12.7773 217.128 13.1159 217.034C12.7662 217.051 12.4182 217.098 12.0761 217.174Z" stroke="#272727" stroke-width="0.835485" stroke-linecap="round" stroke-linejoin="round"/>
<path d="M12.0754 217.174L12.0723 217.174" stroke="#272727" stroke-width="0.835485" stroke-linecap="round" stroke-linejoin="round"/>
<path d="M28.9648 203.889C28.8857 203.127 28.6555 202.388 28.288 201.716C27.9204 201.044 27.4226 200.451 26.8235 199.974C26.2244 199.496 25.5363 199.142 24.7989 198.933C24.0618 198.724 23.2905 198.665 22.5297 198.757C21.7692 198.85 21.0347 199.093 20.3691 199.472C19.7035 199.852 19.1202 200.36 18.6529 200.967C18.186 201.575 17.8447 202.269 17.6489 203.01C17.4531 203.751 17.407 204.523 17.5131 205.282C16.8571 203.439 14.5339 202.584 12.6438 203.092C10.7538 203.599 9.30703 205.156 8.35514 206.863C7.19006 208.954 6.62717 211.518 7.46242 213.761C8.173 215.669 10.0961 217.166 12.0738 217.174" stroke="#272727" stroke-width="0.835485" stroke-linecap="round" stroke-linejoin="round"/>
<path d="M158.039 170.866C158.944 171.84 160.408 172.178 161.713 171.925C163.019 171.672 164.182 170.897 165.121 169.952C165.96 169.103 166.686 167.952 166.447 166.784C166.269 165.896 165.551 165.194 164.737 164.797C163.902 164.443 163.018 164.219 162.116 164.131C162.834 163.541 163.394 162.78 163.743 161.919C164.092 161.058 164.221 160.122 164.116 159.198C163.856 157.364 162.433 155.707 160.617 155.33C158.801 154.953 156.753 156.004 156.138 157.751C156.049 157.316 155.841 156.915 155.538 156.59C155.236 156.265 154.85 156.03 154.422 155.909C153.558 155.681 152.641 155.759 151.827 156.131C150.761 156.577 149.86 157.344 149.251 158.326C148.641 159.307 148.352 160.455 148.425 161.608C148.498 162.761 148.929 163.863 149.657 164.76C150.386 165.657 151.376 166.305 152.49 166.613C151.275 166.914 150.493 168.274 150.667 169.51C150.842 170.746 151.822 171.784 152.997 172.217C154.171 172.651 156.563 172.809 158.039 170.866Z" stroke="#272727" stroke-width="0.835485" stroke-linecap="round" stroke-linejoin="round"/>
<path d="M171.703 186.416C171.616 184.471 170.142 182.705 168.281 182.134C167.34 181.872 166.348 181.856 165.4 182.089C164.452 182.322 163.579 182.795 162.867 183.463C161.953 184.273 161.382 185.4 161.269 186.616C161.165 188.362 162.305 190.036 163.85 190.858C165.241 191.597 167.585 192.051 168.982 191.06C170.426 190.039 171.784 188.241 171.703 186.416Z" stroke="#272727" stroke-width="0.835485" stroke-linecap="round" stroke-linejoin="round"/>
<path d="M168.416 199.51C166.483 198.66 163.952 199.653 163.112 201.589C161.928 200.229 159.982 199.471 158.249 199.978C156.516 200.486 155.246 202.427 155.742 204.16C156.081 205.35 157.131 206.238 158.29 206.663C159.449 207.089 160.716 207.114 161.951 207.061C161.571 207.539 161.311 208.1 161.193 208.699C161.074 209.298 161.101 209.916 161.271 210.502C161.44 211.088 161.748 211.625 162.168 212.068C162.587 212.511 163.107 212.847 163.683 213.048C164.26 213.248 164.876 213.308 165.48 213.222C166.084 213.136 166.659 212.906 167.156 212.552C167.653 212.199 168.058 211.731 168.337 211.188C168.616 210.646 168.762 210.044 168.761 209.434C169.269 209.943 169.918 210.289 170.625 210.426C171.331 210.563 172.062 210.486 172.724 210.204C174.021 209.594 174.811 208.005 174.406 206.63C174.146 205.743 173.44 205.158 172.611 204.821C172.023 204.584 171.26 204.532 170.921 203.92C170.537 203.228 170.724 202.242 170.368 201.481C169.975 200.611 169.282 199.911 168.416 199.51Z" stroke="#272727" stroke-width="0.835485" stroke-linecap="round" stroke-linejoin="round"/>
<path d="M118.947 48.7106C116.328 51.55 115.489 55.8211 116.531 59.5406C117.573 63.2601 120.367 66.3824 123.81 68.1416C125.652 69.0809 127.768 69.6607 129.794 69.2532C132.272 68.754 134.247 66.8701 135.716 64.8158C138.204 61.3296 139.66 56.8432 138.528 52.712C136.392 44.9096 124.163 43.0534 118.947 48.7106Z" stroke="#272727" stroke-width="0.835485" stroke-linecap="round" stroke-linejoin="round"/>
<path d="M122.61 114.459C123.196 113.748 123.778 113.032 124.357 112.31C126.72 109.372 129.017 106.365 131.193 103.281C135.948 96.5449 140.131 89.4449 143.228 81.8883C144.566 78.6396 145.683 75.3038 146.57 71.9038C149.163 61.8996 150.174 50.9128 149.612 41.3741C148.842 28.0846 145.022 17.6083 138.199 16.5301C128.53 15.0026 119.344 25.0956 113.379 34.7447C111.197 38.2406 109.325 41.9209 107.785 45.7435C104.591 53.9526 102.932 62.6834 102.266 71.4838C102.109 73.5845 102.007 75.6914 101.954 77.7916C101.762 83.9693 102.117 90.152 103.016 96.2669C103.632 100.378 104.591 104.431 105.883 108.383C106.508 110.28 107.223 112.148 108.028 113.987" stroke="#272727" stroke-width="0.835485" stroke-linecap="round" stroke-linejoin="round"/>
<path d="M113.5 34.8169C124.694 39.9635 136.998 42.2246 149.29 41.3934" stroke="#272727" stroke-width="0.835485" stroke-linecap="round" stroke-linejoin="round"/>
<path d="M185.022 64.5061L182.238 61.373" stroke="#272727" stroke-width="0.835485" stroke-linecap="round" stroke-linejoin="round"/>
<path d="M181.514 64.9916L185.748 60.8872" stroke="#272727" stroke-width="0.835485" stroke-linecap="round" stroke-linejoin="round"/>
<path d="M180.796 113.552L179.621 105.903" stroke="#272727" stroke-width="0.835485" stroke-linecap="round" stroke-linejoin="round"/>
<path d="M176.686 110.787L183.085 108.268" stroke="#272727" stroke-width="0.835485" stroke-linecap="round" stroke-linejoin="round"/>
<path d="M159.771 136.499L165.071 125.699" stroke="#272727" stroke-width="0.835485" stroke-linecap="round" stroke-linejoin="round"/>
<path d="M168.312 143.255L190.323 132.022" stroke="#272727" stroke-width="0.835485" stroke-linecap="round" stroke-linejoin="round"/>
<path d="M170.643 156.75L179.652 158.288" stroke="#272727" stroke-width="0.835485" stroke-linecap="round" stroke-linejoin="round"/>
<path d="M53.3096 129.163L31.875 93.4658" stroke="#272727" stroke-width="0.835485" stroke-linecap="round" stroke-linejoin="round"/>
<path d="M61.9165 123.427L60.1523 113.608" stroke="#272727" stroke-width="0.835485" stroke-linecap="round" stroke-linejoin="round"/>
<path d="M30.7251 124.155L20.377 121.634" stroke="#272727" stroke-width="0.835485" stroke-linecap="round" stroke-linejoin="round"/>
<path d="M85.5767 169.882C83.1016 168.135 79.7706 167.272 76.9983 168.495C74.2259 169.718 72.61 173.481 74.2943 176C71.5687 175.443 68.664 177.933 68.7971 180.712C68.9302 183.49 72.0608 185.691 74.7195 184.877" stroke="#272727" stroke-width="0.835485" stroke-linecap="round" stroke-linejoin="round"/>
<path d="M119.457 174.161C120.962 172.444 123.92 172.292 125.592 173.847C127.264 175.403 127.325 178.364 125.72 179.988C127.01 179.894 128.295 180.238 129.365 180.967C130.434 181.697 131.225 182.766 131.608 184.002C131.991 185.239 131.944 186.568 131.475 187.774C131.005 188.98 130.141 189.992 129.022 190.643" stroke="#272727" stroke-width="0.835485" stroke-linecap="round" stroke-linejoin="round"/>
<path fill-rule="evenodd" clip-rule="evenodd" d="M118.661 58.8004C119.479 61.7261 121.676 64.1792 124.379 65.559C125.83 66.2984 127.491 66.7555 129.087 66.4347C131.032 66.0428 132.585 64.5603 133.74 62.9441C135.695 60.2061 136.838 56.6796 135.95 53.4325C134.269 47.3004 124.658 45.8411 120.559 50.2875C118.501 52.5177 117.843 55.8747 118.661 58.8004ZM131.901 50.156C131.714 50.0206 131.453 50.062 131.317 50.2487C131.182 50.4354 131.223 50.6964 131.41 50.8321C134.058 52.755 134.923 56.7829 133.298 59.6236C133.184 59.8239 133.253 60.079 133.454 60.1937C133.654 60.308 133.909 60.2385 134.023 60.0384C135.86 56.8276 134.894 52.3295 131.901 50.156Z" fill="#272727"/>
<path d="M112.028 25.1923L111.119 20.8696" stroke="#272727" stroke-width="0.835485" stroke-linecap="round" stroke-linejoin="round"/>
<path d="M109.023 23.8732L113.263 22.1302" stroke="#272727" stroke-width="0.835485" stroke-linecap="round" stroke-linejoin="round"/>
<path d="M98.0906 20.2038L96.834 16.8208" stroke="#272727" stroke-width="0.835485" stroke-linecap="round" stroke-linejoin="round"/>
<path d="M95.6222 19.1549L99.1853 17.2289" stroke="#272727" stroke-width="0.835485" stroke-linecap="round" stroke-linejoin="round"/>
<path d="M82.5284 122.768C81.1437 120.891 80.1441 118.758 79.5872 116.492C79.0303 114.226 78.927 111.873 79.2832 109.567" stroke="#272727" stroke-width="0.835485" stroke-linecap="round" stroke-linejoin="round"/>
<path d="M139.056 135.176C141.347 134.133 143.401 132.636 145.096 130.776C146.791 128.916 148.09 126.731 148.915 124.353" stroke="#272727" stroke-width="0.835485" stroke-linecap="round" stroke-linejoin="round"/>
<path d="M104.19 172.799L109.663 151.367" stroke="#272727" stroke-width="0.835485" stroke-linecap="round" stroke-linejoin="round"/>
<path d="M106.53 149.492L109.746 128.31" stroke="#272727" stroke-width="0.835485" stroke-linecap="round" stroke-linejoin="round"/>
<path d="M51.8218 76.3633L50.207 72.7256" stroke="#272727" stroke-width="0.835485" stroke-linecap="round" stroke-linejoin="round"/>
<path d="M49.1726 75.5872L52.777 72.9814" stroke="#272727" stroke-width="0.835485" stroke-linecap="round" stroke-linejoin="round"/>
<path d="M67.4316 88.5262L64.6738 87.0933" stroke="#272727" stroke-width="0.835485" stroke-linecap="round" stroke-linejoin="round"/>
<path d="M66.5986 86.0553L65.0172 89.786" stroke="#272727" stroke-width="0.835485" stroke-linecap="round" stroke-linejoin="round"/>
<path d="M48.9745 96.8258L52.2964 95.9562" stroke="#272727" stroke-width="0.835485" stroke-linecap="round" stroke-linejoin="round"/>
<path d="M50.6983 98.483L50.4434 95.0596" stroke="#272727" stroke-width="0.835485" stroke-linecap="round" stroke-linejoin="round"/>
<path d="M94.2614 37.2342L96.1172 33.0909" stroke="#272727" stroke-width="1.05098" stroke-linecap="round" stroke-linejoin="round"/>
<path d="M92.9727 34.1147L97.8682 35.5307" stroke="#272727" stroke-width="1.05098" stroke-linecap="round" stroke-linejoin="round"/>
<path d="M165.015 39.8872L166.471 42.271L169.182 42.394L167.455 44.5489L168.2 47.2583L165.676 46.2062L163.425 47.7579L163.593 44.9529L161.457 43.2023L164.084 42.5209L165.015 39.8872Z" fill="#272727"/>
<path d="M74.6565 62.5961L74.64 65.3894L76.8803 66.921L74.2777 67.844L73.4844 70.5397L71.8925 68.3169L69.1619 68.4511L70.7807 66.1545L69.8865 63.5419L72.4787 64.3451L74.6565 62.5961Z" fill="#272727"/>
<g opacity="0.1">
<path d="M135.66 16.1366C129.341 17.9428 123.65 22.1118 119.212 26.8904C114.366 32.1094 110.773 38.4998 108.107 45.072C102.679 58.4582 100.267 73.2714 101.434 87.6789C101.755 91.7199 102.347 95.7348 103.206 99.6965C104.007 103.358 104.575 107.943 106.831 111.027C107.612 112.095 109.007 111.315 109.022 110.175C109.045 108.538 108.57 106.824 108.168 105.236C107.729 103.502 107.32 101.76 107.01 99.9981C106.421 96.6518 105.993 93.2701 105.737 89.882C105.212 83.039 105.372 76.1609 106.216 69.3497C107.905 55.9137 112.301 42.3023 120.515 31.4031C122.643 28.5789 125.01 25.8089 127.716 23.5246C130.436 21.2739 133.35 19.2687 136.423 17.5324C137.267 17.0466 136.47 15.9051 135.66 16.1366Z" fill="#272727"/>
</g>
<g opacity="0.1">
<path d="M101.518 72.3767C99.8902 72.0238 98.4945 73.8651 97.5131 74.914C96.2892 76.1964 95.1439 77.551 94.0826 78.9708C92.0399 81.7334 90.2824 84.6958 88.8377 87.8129C85.9642 94.0497 84.2565 100.76 83.7994 107.611C83.6836 109.43 83.6484 111.258 83.7028 113.08C83.7535 114.771 83.7449 116.837 84.492 118.397C85.2113 119.898 87.3287 120.125 88.087 118.494C88.7642 117.036 88.2245 114.568 88.1594 113.021C87.9026 106.309 88.9739 99.6112 91.3115 93.3132C92.6481 89.7105 94.3328 86.247 96.3415 82.9711C97.3704 81.2928 98.5643 79.7336 99.6786 78.1157C100.569 76.8236 102.838 75.0916 102.449 73.3496C102.413 73.111 102.304 72.8893 102.138 72.7152C101.971 72.5407 101.754 72.4222 101.517 72.3758L101.518 72.3767Z" fill="#272727"/>
</g>
<g opacity="0.1">
<path d="M119.718 78.2131C118.046 78.9117 116.507 80.9054 115.47 82.341C114.215 84.0508 113.113 85.8685 112.178 87.7722C110.352 91.5934 109.059 95.6469 108.336 99.8194C107.581 103.995 107.327 108.246 107.579 112.481C107.71 114.592 107.947 116.695 108.29 118.782C108.621 120.803 108.894 123.038 109.781 124.893C110.519 126.437 112.644 125.87 112.62 124.192C112.591 122.252 112.056 120.313 111.813 118.385C111.567 116.436 111.413 114.478 111.349 112.511C111.199 108.54 111.446 104.563 112.087 100.64C112.738 96.8002 113.838 93.0502 115.365 89.467C116.134 87.6683 116.998 85.8529 117.92 84.1321C118.39 83.2566 118.849 82.384 119.313 81.5086C119.765 80.6582 120.357 79.84 120.556 78.8885C120.571 78.7808 120.559 78.671 120.519 78.57C120.479 78.4687 120.413 78.3796 120.329 78.3115C120.244 78.2434 120.143 78.1986 120.036 78.1814C119.928 78.1642 119.818 78.1753 119.717 78.2134L119.718 78.2131Z" fill="#272727"/>
</g>
<g opacity="0.1">
<path d="M133.135 102.013L133.079 102.024C132.778 102.066 132.498 102.201 132.279 102.412C132.059 102.622 131.911 102.896 131.856 103.194C131.14 107.657 131.368 112.298 131.482 116.804C131.576 120.508 131.285 124.541 132.592 128.084C133.056 129.339 134.027 131.143 135.426 131.528C135.75 131.622 136.097 131.604 136.411 131.477C136.724 131.349 136.985 131.12 137.152 130.826C137.511 130.087 137.114 129.442 136.653 128.886C134.364 126.129 135.075 122.166 135.119 118.817C135.187 113.667 135.504 108.35 134.624 103.256C134.583 102.955 134.448 102.674 134.237 102.454C134.027 102.235 133.753 102.087 133.454 102.033C133.349 102.011 133.242 102.004 133.135 102.013Z" fill="#272727"/>
</g>
<g opacity="0.1">
<path d="M105.601 111.499C104.653 113.664 104.364 116.415 104.136 118.755C103.895 121.213 103.652 123.671 103.442 126.132C103.014 131.148 102.587 136.164 102.159 141.179C101.31 151.215 100.548 161.261 99.7576 171.301C99.5421 174.04 99.3354 176.78 99.1376 179.521C98.9344 182.344 98.4342 185.311 98.7736 188.13C98.9608 189.687 100.945 189.508 101.337 188.187C102.031 185.842 102.06 183.279 102.3 180.852C102.551 178.304 102.796 175.754 103.035 173.205C103.486 168.284 103.925 163.363 104.349 158.44C105.21 148.503 106.162 138.575 107.01 128.637C107.244 125.899 107.46 123.16 107.66 120.421C107.764 118.978 107.823 117.566 107.812 116.119C107.801 114.687 107.915 113.209 107.573 111.81C107.348 110.892 106.052 110.471 105.601 111.499L105.601 111.499Z" fill="#272727"/>
</g>
<g opacity="0.1">
<path d="M84.0371 187.675C84.729 187.539 85.0025 187.06 85.4239 186.537C85.9886 185.847 86.6344 185.226 87.3474 184.69C88.0528 184.154 88.8139 183.695 89.6174 183.321C90.2321 183.03 90.6878 182.809 90.8515 182.105C90.8682 182.005 90.8579 181.902 90.8215 181.807C90.7854 181.712 90.7244 181.628 90.6451 181.564C89.3661 180.557 87.0567 182.447 86.0997 183.282C85.1299 184.127 83.08 185.952 83.5649 187.391C83.6014 187.484 83.6675 187.562 83.753 187.613C83.8384 187.665 83.9383 187.687 84.0375 187.676L84.0371 187.675Z" fill="#272727"/>
</g>
<g opacity="0.1">
<path d="M98.4066 193.067C99.0884 192.994 99.5208 192.364 100.11 192.051C100.628 191.74 101.216 191.566 101.821 191.545C102.672 191.584 103.435 191.099 103.456 190.168C103.474 189.361 102.741 188.573 101.883 188.72C100.852 188.858 99.87 189.242 99.0186 189.839C98.3542 190.34 97.248 191.397 97.4628 192.313C97.4935 192.536 97.6088 192.738 97.7844 192.878C97.9601 193.018 98.183 193.086 98.4068 193.066L98.4066 193.067Z" fill="#272727"/>
</g>
<g opacity="0.1">
<path d="M106.049 188.591C106.488 187.659 106.922 186.883 107.8 186.29C108.653 185.713 109.793 185.781 110.565 185.123C111.326 184.476 111.178 183.471 110.347 182.979C109.032 182.201 107.092 183.269 106.047 184.117C104.893 185.053 103.908 186.383 103.66 187.875C103.425 189.286 105.447 189.872 106.049 188.591L106.049 188.591Z" fill="#272727"/>
</g>
<g opacity="0.1">
<path d="M75.2425 184.248C75.0601 183.622 74.3673 183.574 73.8545 183.36C73.1302 183.058 72.3536 182.472 72.1215 181.681C71.5795 179.833 73.4869 178.946 74.9658 178.851C75.9114 178.791 76.7421 177.585 76.2709 176.689C75.2514 174.75 76.1246 173.089 76.1138 171.073C76.1002 170.957 76.0415 170.851 75.9505 170.779C75.8592 170.706 75.743 170.672 75.6273 170.685C72.5582 171.324 72.5833 175.517 73.3036 177.848L75.0362 175.695C71.9606 174.803 68.76 177.974 69.0218 181.013C69.2366 183.508 72.1409 186.31 74.7356 185.261C74.8741 185.208 74.9963 185.119 75.0892 185.003C75.1823 184.887 75.243 184.749 75.2651 184.602C75.2801 184.484 75.2728 184.364 75.243 184.248L75.2425 184.248Z" fill="#272727"/>
</g>
<g opacity="0.1">
<path d="M66.8273 190.991C65.7894 192.449 65.6118 194.336 64.3343 195.672C62.9915 197.076 61.0692 197.663 59.1561 197.547C54.7079 197.279 50.7963 193.985 48.5136 190.352C46.3934 186.976 45.5716 182.684 46.7661 178.83C47.8669 175.279 50.4141 171.752 53.8159 170.145C54.0941 170.029 54.338 169.843 54.5241 169.605C54.7102 169.368 54.8328 169.087 54.8798 168.789C54.9269 168.492 54.8969 168.187 54.793 167.903C54.6891 167.62 54.5144 167.369 54.2857 167.172C51.2236 164.286 50.1868 159.929 50.8672 155.845C51.2005 153.845 51.6097 151.915 52.8005 150.227C54.0349 148.476 55.89 147.359 57.1898 145.686C57.7417 144.976 57.2008 143.718 56.2154 143.897C53.7077 144.354 51.9417 146.371 50.5474 148.384C49.1253 150.438 47.7038 152.778 47.3013 155.281C46.4815 160.384 48.4839 165.67 51.7722 169.546L52.5477 166.897C44.0396 169.81 40.2134 178.983 42.5337 187.373C43.6779 191.51 46.3513 195.289 49.7416 197.898C53.4441 200.746 58.5492 202.683 63.1777 201.054C65.3036 200.26 67.0865 198.75 68.2207 196.785C69.2324 195.059 69.8831 192.219 67.9372 190.881C67.7741 190.751 67.5669 190.691 67.3597 190.711C67.1525 190.732 66.9615 190.833 66.8269 190.991L66.8273 190.991Z" fill="#272727"/>
</g>
<g opacity="0.1">
<path d="M31.1953 133.078C30.9771 131.731 29.5092 131.485 28.3855 131.863C27.0058 132.326 25.8483 133.507 25.0768 134.7C24.2389 135.983 23.7268 137.451 23.5849 138.977C23.443 140.502 23.6758 142.039 24.2632 143.455L26.9744 140.884C22.8129 139.435 17.8036 141.734 17.3075 146.43C17.0859 148.54 18.0641 150.729 20.0178 151.691C21.7741 152.555 24.0372 152.438 25.2694 150.785C25.4829 150.508 25.601 150.169 25.6059 149.82C25.6111 149.47 25.5025 149.129 25.2969 148.846C25.0916 148.563 24.7999 148.355 24.4659 148.252C24.1319 148.149 23.7736 148.157 23.4444 148.275C21.9667 148.787 20.8702 147.728 21.5201 146.24C22.2644 144.535 24.2299 144.262 25.8268 144.714C27.2709 145.121 28.6427 143.28 28.02 141.988C27.5922 141.138 27.3662 140.201 27.359 139.249C27.3518 138.298 27.5638 137.357 27.9787 136.501C28.3777 135.659 29.0294 134.962 29.843 134.508C30.3324 134.24 31.3175 133.829 31.1955 133.077L31.1953 133.078Z" fill="#272727"/>
</g>
<g opacity="0.1">
<path d="M32.6893 160.052C30.4715 159.077 28.4875 161.94 28.1543 163.845C27.7267 166.292 29.5912 169.295 32.1632 169.543C32.5979 169.598 33.0377 169.496 33.4049 169.257C33.772 169.018 34.0423 168.656 34.1681 168.237C34.2939 167.817 34.2671 167.366 34.092 166.964C33.9169 166.563 33.6053 166.236 33.2125 166.042C32.2899 165.559 31.1775 165.16 31.1732 163.912C31.1687 162.65 32.3763 162.203 32.9695 161.251C33.2266 160.838 33.195 160.274 32.6893 160.052Z" fill="#272727"/>
</g>
<g opacity="0.1">
<path d="M14.0332 202.568C10.15 202.245 6.83071 205.664 6.65223 209.442C6.45436 213.626 9.77105 217.283 13.8156 217.947L13.4226 214.317C8.15833 215.62 6.92985 222.819 11.4033 225.849C13.5709 227.317 16.4405 227.339 18.7943 226.29C21.3449 225.154 23.1762 223.011 24.7997 220.812L21.1266 219.166C20.2625 223.587 24.5634 226.991 28.7211 226.36C30.9472 226.023 32.7308 224.815 34.3102 223.275C35.8012 221.821 37.2461 220.297 37.8784 218.267C38.1363 217.439 37.2751 216.442 36.443 217.097C35.39 217.928 34.2244 218.618 33.0974 219.344C32.006 220.046 30.9402 220.902 29.7865 221.491C28.2865 222.256 24.7927 222.453 25.245 219.817C25.5806 217.859 22.7867 216.444 21.5713 218.171C20.0302 220.362 17.616 223.79 14.4529 223.052C13.8585 222.906 13.3321 222.561 12.9615 222.074C12.591 221.587 12.3991 220.987 12.4176 220.375C12.4928 219.015 13.5781 218.166 14.7973 217.84C16.6678 217.339 16.1511 214.462 14.4044 214.21C12.0934 213.875 10.1785 211.911 10.1311 209.518C10.0802 206.966 12.2625 205.779 14.279 204.851C15.2673 204.397 15.2914 202.672 14.0317 202.568L14.0332 202.568Z" fill="#272727"/>
</g>
<g opacity="0.1">
<path d="M157.1 159.693C158.075 158.031 160.391 156.536 161.386 159.061C162.144 160.983 160.622 162.858 159.529 164.303C158.732 165.357 159.791 167.176 161.144 166.523C162.738 165.755 163.676 167.545 162.908 168.876C161.857 170.698 159.968 169.543 158.464 170.106C158.307 170.17 158.167 170.269 158.053 170.394C157.94 170.52 157.856 170.67 157.809 170.832C157.761 170.994 157.751 171.165 157.778 171.332C157.806 171.5 157.871 171.658 157.969 171.797C158.894 173.191 161.265 173.036 162.68 172.552C163.518 172.274 164.272 171.786 164.868 171.135C165.465 170.484 165.885 169.69 166.089 168.831C166.834 165.478 163.365 162.214 160.113 163.88L161.728 166.1C163.647 163.431 165.78 159.453 162.849 156.63C160.308 154.184 157.215 156.697 156.112 159.245C155.828 159.9 156.755 160.284 157.102 159.694L157.1 159.693Z" fill="#272727"/>
</g>
<g opacity="0.1">
<path d="M162.757 187.99C161.576 190.613 166.333 191.647 168.011 191.371C170.3 190.996 173.299 187.768 171.582 185.436C171.498 185.324 171.39 185.233 171.266 185.169C171.142 185.104 171.005 185.069 170.865 185.065C170.726 185.061 170.587 185.088 170.46 185.145C170.332 185.202 170.219 185.287 170.129 185.394C169.064 186.604 168.967 188.223 167.149 188.726C165.569 189.163 164.614 187.617 163.139 187.712C163.057 187.721 162.978 187.751 162.911 187.8C162.844 187.849 162.791 187.914 162.757 187.99Z" fill="#272727"/>
</g>
<g opacity="0.1">
<path d="M156.245 202.088C156.155 203.781 156.66 205.115 158.151 206.047C158.934 206.527 159.828 206.797 160.746 206.831C161.664 206.865 162.575 206.662 163.391 206.24L161.625 205.175C162.021 207.739 160.135 210.714 162.614 212.79C165.066 214.845 167.671 212.476 168.785 210.273C169.648 208.567 166.995 207.404 166.1 209.056C165.503 210.157 164.115 211.364 163.947 209.362C163.82 207.856 164.437 206.412 164.211 204.881C164.098 204.114 163.23 203.428 162.445 203.815C160.415 204.815 158.4 203.702 157.36 201.818C157.107 201.36 156.272 201.57 156.245 202.087L156.245 202.088Z" fill="#272727"/>
</g>
</g>
</svg>
