<svg width="98" height="184" viewBox="0 0 98 184" fill="none" xmlns="http://www.w3.org/2000/svg">
<path d="M121.321 -19.813C173.758 -12.5299 210.363 35.8832 203.08 88.3208C195.797 140.758 147.384 177.363 94.9466 170.08C42.509 162.797 5.90409 114.384 13.1872 61.9465C20.4702 9.50891 68.8834 -27.096 121.321 -19.813ZM96.413 159.522C143.019 165.995 186.049 133.461 192.522 86.8544C198.995 40.2479 166.461 -2.78166 119.854 -9.25484C73.248 -15.728 30.2185 16.8064 23.7453 63.4129C17.2721 110.019 49.8065 153.049 96.413 159.522Z" fill="#BA933A"/>
<path d="M117.46 10.7885C153.101 15.7387 177.981 48.6444 173.031 84.2855C168.081 119.927 135.175 144.806 99.5338 139.856C63.8928 134.906 39.0129 102 43.9631 66.3592C48.9133 30.7182 81.819 5.83835 117.46 10.7885ZM100.993 129.35C130.832 133.495 158.381 112.665 162.525 82.8263C166.669 52.9874 145.84 25.4386 116.001 21.2943C86.162 17.1499 58.6132 37.9795 54.4688 67.8184C50.3245 97.6573 71.1541 125.206 100.993 129.35Z" fill="#BA933A"/>
<circle cx="107.929" cy="75.2152" r="33.6231" transform="rotate(-82.0928 107.929 75.2152)" fill="#BA933A"/>
</svg>
