<svg width="72" height="151" viewBox="0 0 72 151" fill="none" xmlns="http://www.w3.org/2000/svg">
<path d="M-23.6791 13.187C28.7585 20.4701 65.3634 68.8832 58.0803 121.321C50.7973 173.758 2.38416 210.363 -50.0534 203.08C-102.491 195.797 -139.096 147.384 -131.813 94.9465C-124.53 42.5089 -76.1166 5.90397 -23.6791 13.187ZM-48.587 192.522C-1.98052 198.995 41.049 166.461 47.5222 119.854C53.9954 73.2479 21.461 30.2183 -25.1455 23.7452C-71.752 17.272 -114.782 49.8064 -121.255 96.4129C-127.728 143.019 -95.1935 186.049 -48.587 192.522Z" fill="#BA933A"/>
<path d="M-27.5399 43.7885C8.1011 48.7387 32.981 81.6444 28.0308 117.285C23.0806 152.927 -9.82514 177.806 -45.4662 172.856C-81.1072 167.906 -105.987 135 -101.037 99.3592C-96.0867 63.7182 -63.181 38.8384 -27.5399 43.7885ZM-44.007 162.35C-14.1681 166.495 13.3807 145.665 17.5251 115.826C21.6694 85.9874 0.839819 58.4386 -28.9991 54.2943C-58.838 50.1499 -86.3868 70.9795 -90.5312 100.818C-94.6755 130.657 -73.8459 158.206 -44.007 162.35Z" fill="#BA933A"/>
<circle cx="-37.0711" cy="108.215" r="33.6231" transform="rotate(-82.0928 -37.0711 108.215)" fill="#BA933A"/>
</svg>
