<svg width="95" height="217" viewBox="0 0 95 217" fill="none" xmlns="http://www.w3.org/2000/svg">
<path d="M-0.679088 13.187C51.7585 20.4701 88.3634 68.8832 81.0803 121.321C73.7973 173.758 25.3842 210.363 -27.0534 203.08C-79.491 195.797 -116.096 147.384 -108.813 94.9465C-101.53 42.5089 -53.1166 5.90397 -0.679088 13.187ZM-25.587 192.522C21.0195 198.995 64.049 166.461 70.5222 119.854C76.9954 73.2479 44.461 30.2183 -2.14551 23.7452C-48.752 17.272 -91.7815 49.8064 -98.2547 96.4129C-104.728 143.019 -72.1935 186.049 -25.587 192.522Z" fill="#3B7071"/>
<path d="M-4.53994 43.7885C31.1011 48.7387 55.981 81.6444 51.0308 117.285C46.0806 152.927 13.1749 177.806 -22.4662 172.856C-58.1072 167.906 -82.9871 135 -78.0369 99.3592C-73.0867 63.7182 -40.181 38.8384 -4.53994 43.7885ZM-21.007 162.35C8.83186 166.495 36.3807 145.665 40.5251 115.826C44.6694 85.9874 23.8398 58.4386 -5.99908 54.2943C-35.838 50.1499 -63.3868 70.9795 -67.5312 100.818C-71.6755 130.657 -50.8459 158.206 -21.007 162.35Z" fill="#3B7071"/>
<circle cx="-14.0711" cy="108.215" r="33.6231" transform="rotate(-82.0928 -14.0711 108.215)" fill="#3B7071"/>
</svg>
