<svg width="245" height="222" viewBox="0 0 245 222" fill="none" xmlns="http://www.w3.org/2000/svg">
<mask id="mask0_125_1423" style="mask-type:luminance" maskUnits="userSpaceOnUse" x="0" y="0" width="245" height="222">
<path d="M244.707 0.411621H0.517578V221.423H244.707V0.411621Z" fill="white"/>
</mask>
<g mask="url(#mask0_125_1423)">
<path fill-rule="evenodd" clip-rule="evenodd" d="M65.7435 62.14C75.0602 59.1728 83.5246 54.0032 90.419 47.0696L90.6171 47.2638C93.3498 52.7853 95.2391 58.7937 95.515 64.9503C95.7117 68.9371 95.1505 72.9252 93.8611 76.7028L94.0338 76.7627C100.035 76.795 106.032 76.4131 111.982 75.6201C106.911 73.2188 103.674 67.9534 102.116 62.5454C100.98 58.5981 100.581 54.4985 100.182 50.3986C100.024 48.7709 99.8657 47.1433 99.6615 45.525C98.9422 39.8303 97.5284 33.9805 93.8788 29.5517C90.1163 24.9888 84.3159 22.4396 78.4521 21.6709C66.1425 20.0524 53.1533 26.2937 46.7244 36.9141C43.7944 41.7532 42.2095 47.2305 40.631 52.6865C40.2852 53.8815 39.9398 55.0754 39.5805 56.2616C37.5884 62.8307 34.9685 69.5159 29.9297 74.174L30.1695 74.4243C40.7446 77.9191 51.7097 80.1005 62.8174 80.9194C66.0633 81.1617 69.312 81.2864 72.5634 81.2936C72.9025 81.3327 73.2447 81.2503 73.5291 81.061C74.1356 80.5389 73.5501 79.5801 72.9966 79.0054C68.6283 74.4394 66.0531 68.4514 65.7435 62.14ZM89.6906 27.2939C89.4886 27.0825 89.1539 27.0751 88.9426 27.2768C88.7315 27.4785 88.7238 27.8134 88.9257 28.0245C91.9211 31.1595 94.2499 34.869 95.7716 38.9289C97.2936 42.9887 97.9765 47.3152 97.7797 51.6465C97.7665 51.9385 97.9922 52.1857 98.2841 52.1989C98.5758 52.2122 98.8233 51.9865 98.8365 51.6946C99.0399 47.2205 98.3341 42.7514 96.7621 38.5575C95.1902 34.3638 92.7848 30.5321 89.6906 27.2939Z" fill="#272727"/>
<path d="M223.462 114.405L212.493 211.996L212.264 211.972L101.076 207.37L110.325 113.167L110.96 106.687L152.419 109.532L180.765 111.475L223.462 114.405ZM177.913 161.489C177.913 159.027 177.183 156.621 175.816 154.575C174.449 152.529 172.505 150.934 170.231 149.992C167.957 149.05 165.455 148.803 163.042 149.284C160.628 149.764 158.41 150.949 156.67 152.69C154.93 154.43 153.745 156.647 153.264 159.061C152.784 161.475 153.031 163.977 153.972 166.251C154.914 168.525 156.509 170.468 158.556 171.835C160.602 173.203 163.008 173.933 165.469 173.933C168.77 173.933 171.935 172.621 174.269 170.288C176.602 167.954 177.913 164.789 177.913 161.489Z" fill="#C55938"/>
<path d="M212.493 211.996L211.516 220.685L100.258 215.706L101.076 207.37L212.264 211.972L212.493 211.996Z" fill="#EDEBF0"/>
<path d="M188.806 93.964C189.137 94.5142 188.848 95.2123 188.559 95.787C185.967 100.914 183.376 106.042 180.787 111.171L180.766 111.475L152.42 109.532L152.424 109.497C157.136 102.99 161.093 95.9675 164.218 88.5659L167.568 89.243C173.34 90.4102 179.111 91.5762 184.881 92.7409C185.734 92.9136 186.584 93.0863 187.437 93.2593C187.955 93.3647 188.533 93.509 188.806 93.964Z" fill="#272727"/>
<path d="M165.469 149.042C167.93 149.042 170.336 149.772 172.383 151.139C174.429 152.506 176.024 154.449 176.966 156.723C177.908 158.997 178.154 161.499 177.674 163.912C177.195 166.326 176.01 168.544 174.27 170.284C172.53 172.024 170.313 173.21 167.899 173.69C165.485 174.171 162.983 173.925 160.709 172.984C158.435 172.042 156.492 170.448 155.124 168.402C153.756 166.356 153.026 163.95 153.025 161.489C153.025 159.854 153.347 158.236 153.972 156.726C154.597 155.216 155.513 153.844 156.669 152.688C157.824 151.532 159.197 150.615 160.706 149.99C162.217 149.364 163.835 149.042 165.469 149.042Z" fill="#025253"/>
<path d="M101.074 207.37L100.256 215.706L56.0745 214.711L56.011 212.395L55.9512 210.106L101.004 207.367L101.074 207.37Z" fill="#C55938"/>
<path d="M88.0887 107.61C95.794 107.864 103.356 109.758 110.273 113.164L110.326 113.167L101.077 207.37L101.006 207.367L55.9534 210.107L56.0133 212.395L55.7313 212.402C49.3598 211.641 47.1502 210.756 44.1904 208.799C36.1968 203.506 29.9273 198.46 24.7546 190.389C18.4485 180.551 17.1006 167.967 19.9683 156.637C22.8359 145.308 29.6473 135.21 38.2369 127.287C46.8266 119.363 57.1374 113.489 67.863 108.855L67.9935 108.784C67.5702 106.789 68.8891 104.754 70.6346 103.696C71.4055 103.26 72.2675 103.011 73.1521 102.966C74.2381 102.871 75.3735 102.928 76.4877 102.78C77.4749 102.649 78.4765 102.402 79.4742 102.205C80.9482 101.912 82.4186 101.729 83.8183 102.177C86.1667 102.932 88.2606 105.086 88.092 107.548L88.0887 107.61Z" fill="#272727"/>
<path d="M65.7461 62.1413C75.0631 59.174 83.5272 54.0047 90.4216 47.0708C92.2647 45.2064 93.9777 43.2176 95.5485 41.1187" stroke="#272727" stroke-width="1.05788" stroke-linecap="round" stroke-linejoin="round"/>
<path d="M90.6166 47.2651C93.3482 52.7871 95.2394 58.7955 95.5144 64.9516C95.7117 68.9384 95.1508 72.9262 93.8611 76.7038C93.1446 78.7669 92.1747 80.7331 90.9734 82.5569C88.8295 85.7937 85.9662 88.4892 83.5898 91.5594C81.2133 94.6295 79.2702 98.3153 79.4714 102.194" stroke="#272727" stroke-width="1.05788" stroke-linecap="round" stroke-linejoin="round"/>
<path d="M65.7459 62.1416C66.0555 68.4527 68.6307 74.4407 72.999 79.0069C73.5525 79.5817 74.138 80.5408 73.5316 81.0625C73.2471 81.2515 72.9049 81.334 72.5658 81.2951C69.3144 81.2879 66.0657 81.1632 62.8198 80.9213C51.7121 80.102 40.7471 77.9206 30.1719 74.4261" stroke="#272727" stroke-width="1.05788" stroke-linecap="round" stroke-linejoin="round"/>
<path d="M29.8672 74.2354C29.8884 74.2141 29.9094 74.1964 29.9306 74.1755C34.9695 69.5174 37.5894 62.8321 39.5815 56.2631C41.5808 49.6622 43.1535 42.8144 46.7253 36.9156C53.1543 26.2951 66.1435 20.0538 78.4531 21.6724C84.3169 22.4411 90.1173 24.9903 93.8797 29.5532C97.5293 33.982 98.9431 39.8318 99.6625 45.5265C100.382 51.2212 100.53 57.0323 102.116 62.5468C103.675 67.9549 106.912 73.2202 111.983 75.6216C112.085 75.671 112.187 75.7168 112.289 75.7626" stroke="#272727" stroke-width="1.05788" stroke-linecap="round" stroke-linejoin="round"/>
<path d="M94.0332 76.7642C100.035 76.7964 106.032 76.4146 111.981 75.6216L112.221 75.5898" stroke="#272727" stroke-width="1.05788" stroke-linecap="round" stroke-linejoin="round"/>
<path d="M62.8066 81.0376C66.0313 83.5968 68.6338 86.8534 70.4187 90.5629C72.2036 94.2724 73.1247 98.3383 73.1122 102.455" stroke="#272727" stroke-width="1.05788" stroke-linecap="round" stroke-linejoin="round"/>
<path d="M152.419 109.532L110.959 106.686L110.325 113.167L101.076 207.37L100.258 215.706L211.516 220.684L212.493 211.996L223.463 114.405L180.765 111.474L152.419 109.532Z" stroke="#272727" stroke-width="1.05788" stroke-linecap="round" stroke-linejoin="round"/>
<path d="M100.256 215.706L56.0745 214.711L56.011 212.395L55.9512 210.106L101.004 207.367L101.074 207.37L212.262 211.972" stroke="#272727" stroke-width="1.05788" stroke-linecap="round" stroke-linejoin="round"/>
<path d="M177.911 161.489C177.911 163.95 177.181 166.356 175.813 168.402C174.445 170.448 172.501 172.042 170.227 172.984C167.954 173.925 165.451 174.171 163.038 173.69C160.624 173.21 158.407 172.024 156.667 170.284C154.927 168.544 153.742 166.326 153.262 163.912C152.782 161.499 153.029 158.997 153.971 156.723C154.913 154.449 156.508 152.506 158.554 151.139C160.601 149.772 163.006 149.042 165.467 149.042C167.102 149.042 168.72 149.364 170.23 149.99C171.74 150.615 173.112 151.532 174.268 152.688C175.423 153.844 176.34 155.216 176.965 156.726C177.59 158.236 177.912 159.854 177.911 161.489Z" stroke="#272727" stroke-width="1.05788" stroke-linecap="round" stroke-linejoin="round"/>
<path d="M81.9399 67.7587C82.6567 67.6574 83.3495 67.4281 83.985 67.0816C84.5986 66.6972 85.0782 66.0201 85.018 65.2975C84.9546 64.5392 84.3409 63.9612 83.8156 63.4074C83.1214 62.7223 82.5701 61.9064 82.1934 61.0069C81.8154 60.0986 81.779 59.084 82.0911 58.1509" stroke="#272727" stroke-width="1.05788" stroke-linecap="round" stroke-linejoin="round"/>
<path d="M77.2565 59.4934C77.0333 59.2233 76.759 59.0004 76.4492 58.8367C76.1393 58.6734 75.8002 58.573 75.4512 58.5415" stroke="#272727" stroke-width="1.05788" stroke-linecap="round" stroke-linejoin="round"/>
<path d="M85.043 57.2265C85.23 56.8184 85.5178 56.4646 85.8787 56.1981C86.2399 55.9318 86.6629 55.7613 87.1077 55.7028C87.5527 55.6443 88.0052 55.6995 88.423 55.8637C88.8407 56.0279 89.2102 56.2952 89.4963 56.641" stroke="#272727" stroke-width="1.05788" stroke-linecap="round" stroke-linejoin="round"/>
<path d="M72.1465 74.0698C72.7637 75.0052 73.6858 75.698 74.7561 76.0305C75.8264 76.3627 76.9789 76.3142 78.0175 75.8928" stroke="#272727" stroke-width="1.05788" stroke-linecap="round" stroke-linejoin="round"/>
<path d="M55.7294 212.401C49.3579 211.639 47.1483 210.754 44.1885 208.797C36.1949 203.505 29.9254 198.459 24.7527 190.388C18.4485 180.551 17.1007 167.966 19.9683 156.637C22.8359 145.309 29.6473 135.209 38.2369 127.286C46.8266 119.363 57.1375 113.489 67.863 108.855" stroke="#272727" stroke-width="1.05788" stroke-linecap="round" stroke-linejoin="round"/>
<path d="M67.9937 108.784C67.5705 106.789 68.8894 104.754 70.6348 103.696C71.406 103.26 72.268 103.011 73.1523 102.966C74.2383 102.871 75.3737 102.928 76.4879 102.78C77.4752 102.649 78.4767 102.402 79.4745 102.205C80.9484 101.912 82.4188 101.729 83.8185 102.177C86.1669 102.932 88.2609 105.086 88.0923 107.548" stroke="#272727" stroke-width="1.05788" stroke-linecap="round" stroke-linejoin="round"/>
<path d="M88.0605 107.61H88.0881C95.7935 107.864 103.356 109.758 110.272 113.164" stroke="#272727" stroke-width="1.05788" stroke-linecap="round" stroke-linejoin="round"/>
<path d="M152.422 109.497C157.134 102.99 161.091 95.9675 164.217 88.5659L167.566 89.243C173.339 90.4102 179.11 91.5762 184.879 92.7409C185.733 92.9136 186.582 93.0863 187.436 93.2593C187.954 93.365 188.532 93.5096 188.804 93.9646C189.135 94.5148 188.846 95.2128 188.557 95.7876C185.965 100.914 183.375 106.042 180.785 111.172" stroke="#272727" stroke-width="1.05788" stroke-linecap="round" stroke-linejoin="round"/>
<path d="M167.677 88.7061C166.827 86.3542 165.976 84.0011 165.124 81.647C164.8 80.7477 164.468 79.8063 164.6 78.8602C164.732 77.914 165.483 76.9773 166.437 76.9914C167.265 77.0019 167.915 77.6754 168.436 78.3207C169.786 79.9724 170.983 81.7441 172.012 83.6134" stroke="#272727" stroke-width="1.05788" stroke-linecap="round" stroke-linejoin="round"/>
<path d="M183.604 83.1746C184.203 81.6407 184.669 80.0611 184.704 78.4249C184.728 77.346 184.295 75.9882 183.219 75.9002C182.486 75.8368 181.872 76.4245 181.414 77.0003C180.351 78.3325 179.516 79.8313 178.942 81.436C178.752 81.9694 178.592 82.5129 178.463 83.0639" stroke="#272727" stroke-width="1.05788" stroke-linecap="round" stroke-linejoin="round"/>
<path d="M183.603 83.1743C183.253 83.8597 182.955 84.5705 182.711 85.3006C183.017 84.5989 183.325 83.8936 183.603 83.1743Z" stroke="#272727" stroke-width="1.05788" stroke-linecap="round" stroke-linejoin="round"/>
<path d="M184.948 92.4125C186.528 89.3186 187.933 86.1378 189.154 82.885C189.419 82.1797 189.678 81.4535 189.651 80.7025C189.623 79.9514 189.242 79.165 188.551 78.8759C187.493 78.4344 186.361 79.2897 185.62 80.1594C184.833 81.0827 184.156 82.0945 183.604 83.1741" stroke="#272727" stroke-width="1.05788" stroke-linecap="round" stroke-linejoin="round"/>
<path d="M178.12 83.2769C178.346 82.6456 178.565 82.011 178.783 81.38H178.786C180.528 76.3411 182.112 71.2518 183.539 66.1119C183.981 64.5218 184.276 62.5013 182.96 61.5041C181.888 60.6896 180.249 61.1197 179.307 62.086C178.366 63.0523 177.953 64.4037 177.569 65.6967C175.791 71.6908 174.014 77.6865 172.237 83.6833C172.23 83.7109 172.22 83.7385 172.213 83.768" stroke="#272727" stroke-width="1.05788" stroke-linecap="round" stroke-linejoin="round"/>
<path d="M91.4363 23.4336C86.1127 19.1395 78.8174 17.5435 72.096 18.8095C65.3746 20.0754 59.2861 24.0795 55.1068 29.4934C50.9274 34.9072 48.6158 41.6589 48.1522 48.483C48.0088 50.596 48.2723 53.1411 50.1408 54.1377C51.9152 55.0841 54.2084 53.96 55.3055 52.2744C56.4025 50.5888 56.6459 48.5108 57.0109 46.5331C58.1927 40.1317 61.0435 33.9111 65.7802 29.4442C70.5169 24.9774 77.2557 22.4511 83.6747 23.5396C87.8336 24.2694 91.5787 26.5035 94.1966 29.8167C94.8274 30.6194 95.3764 31.4827 95.8364 32.3941C96.0547 32.8287 96.5753 34.9571 96.9351 35.1075C98.1795 35.6284 96.5348 30.0306 96.2649 29.4572C95.1289 27.1116 93.4784 25.0527 91.4363 23.4336Z" fill="#C55938" stroke="#272727" stroke-width="0.827759" stroke-miterlimit="10"/>
<path d="M69.1033 83.8436C72.7628 84.6052 76.5752 83.893 79.7129 81.8617C80.3906 81.418 81.0649 80.9015 81.8651 80.7787C82.6653 80.6559 83.6288 81.1184 83.7055 81.9246C83.7546 82.4381 83.4403 82.913 83.1004 83.3009C81.8364 84.7426 80.0377 85.6437 78.1714 86.0827C76.3051 86.5217 74.3637 86.5278 72.4496 86.4034C68.0835 86.12 63.1569 85.2202 59.4455 82.7513C58.4034 82.0582 57.1402 80.5533 58.8484 79.8718C60.1014 79.3718 61.6703 79.8442 62.7047 80.5892C64.7335 82.0513 66.6001 83.3095 69.1033 83.8436Z" fill="#C55938" stroke="#272727" stroke-width="0.827759" stroke-miterlimit="10"/>
<path d="M90.1047 79.6931L84.4986 84.0394C84.3209 84.1771 84.1181 84.2784 83.9012 84.3377C83.6846 84.397 83.4583 84.413 83.2354 84.3849C83.0125 84.3567 82.7972 84.285 82.6022 84.1735C82.4071 84.0621 82.2357 83.9133 82.0981 83.7359L80.9546 82.2611C80.817 82.0834 80.7154 81.8806 80.6561 81.6638C80.5971 81.4472 80.5811 81.2209 80.6092 80.998C80.6373 80.775 80.7091 80.5598 80.8205 80.3647C80.9317 80.1697 81.0805 79.9983 81.2582 79.8606L86.8643 75.5143C87.0417 75.3767 87.2448 75.2751 87.4614 75.2158C87.6783 75.1568 87.9045 75.1405 88.1275 75.1689C88.3504 75.197 88.5656 75.2688 88.7607 75.3802C88.9558 75.4914 89.1271 75.6402 89.2648 75.8179L90.4082 77.2926C90.5459 77.4701 90.6472 77.6731 90.7065 77.8897C90.7658 78.1066 90.7818 78.3329 90.7537 78.5558C90.7255 78.7788 90.6538 78.9937 90.5423 79.189C90.4308 79.3841 90.2821 79.5555 90.1047 79.6931Z" fill="#272727"/>
<path d="M100.002 199.275C89.0073 199.333 77.811 199.103 67.3647 195.672C56.9184 192.242 47.1699 185.118 43.1028 174.903C40.4082 168.134 40.3988 160.465 42.3391 153.443C44.2793 146.422 48.0782 140.012 52.7153 134.393" stroke="#272727" stroke-width="1.05788" stroke-linecap="round" stroke-linejoin="round"/>
<path d="M84.326 107.337C84.0881 106.068 83.8497 104.799 83.6113 103.529" stroke="#025253" stroke-width="1.05788" stroke-linecap="round" stroke-linejoin="round"/>
<path d="M79.6154 108.013C79.448 106.741 79.2805 105.469 79.1133 104.197" stroke="#025253" stroke-width="1.05788" stroke-linecap="round" stroke-linejoin="round"/>
<path d="M74.7926 108.346C74.6822 107.351 74.5724 106.355 74.4629 105.359" stroke="#025253" stroke-width="1.05788" stroke-linecap="round" stroke-linejoin="round"/>
<path d="M70.4311 108.517C70.3806 107.632 70.3301 106.746 70.2793 105.861" stroke="#025253" stroke-width="1.05788" stroke-linecap="round" stroke-linejoin="round"/>
<path d="M162.266 96.9268C169.382 98.6093 176.556 100.019 183.787 101.157" stroke="#025253" stroke-width="1.05788" stroke-linecap="round" stroke-linejoin="round"/>
<path d="M102.169 129.252C100.999 128.033 99.8287 126.814 98.6582 125.594" stroke="#025253" stroke-width="1.05788" stroke-linecap="round" stroke-linejoin="round"/>
<path d="M86.2148 146.831C87.2131 145.284 88.2114 143.737 89.21 142.19" stroke="#025253" stroke-width="1.05788" stroke-linecap="round" stroke-linejoin="round"/>
<path d="M77.6578 130.048L73.7949 126.597" stroke="#025253" stroke-width="1.05788" stroke-linecap="round" stroke-linejoin="round"/>
<path d="M63.4727 150.143L66.3033 145.835" stroke="#025253" stroke-width="1.05788" stroke-linecap="round" stroke-linejoin="round"/>
<path d="M79.6524 161.893C78.2783 160.555 76.9039 159.218 75.5293 157.88" stroke="#025253" stroke-width="1.05788" stroke-linecap="round" stroke-linejoin="round"/>
<path d="M100.287 157.52L96.3262 153.847" stroke="#025253" stroke-width="1.05788" stroke-linecap="round" stroke-linejoin="round"/>
<path d="M85.2422 175.055C86.7159 173.92 87.9589 172.514 88.9042 170.912" stroke="#025253" stroke-width="1.05788" stroke-linecap="round" stroke-linejoin="round"/>
<path d="M65.1621 177.375C66.5947 176.149 67.8761 174.757 68.9786 173.227" stroke="#025253" stroke-width="1.05788" stroke-linecap="round" stroke-linejoin="round"/>
<path d="M56.5556 167.068L53.4316 163.887" stroke="#025253" stroke-width="1.05788" stroke-linecap="round" stroke-linejoin="round"/>
<path d="M96.4022 186.293L93.0566 182.834" stroke="#025253" stroke-width="1.05788" stroke-linecap="round" stroke-linejoin="round"/>
<path d="M53.1718 203.955L49.7383 198.93" stroke="#025253" stroke-width="1.05788" stroke-linecap="round" stroke-linejoin="round"/>
<path d="M40.2363 193.243L45.052 190.426" stroke="#025253" stroke-width="1.05788" stroke-linecap="round" stroke-linejoin="round"/>
<path d="M35.3759 184.225L32.9238 179.725" stroke="#025253" stroke-width="1.05788" stroke-linecap="round" stroke-linejoin="round"/>
<path d="M26.9844 171.385L31.1251 168.387" stroke="#025253" stroke-width="1.05788" stroke-linecap="round" stroke-linejoin="round"/>
<path d="M36.0079 157.763L32.9863 152.973" stroke="#025253" stroke-width="1.05788" stroke-linecap="round" stroke-linejoin="round"/>
<path d="M26.6035 148.117C27.8631 146.662 29.2813 145.353 30.8312 144.212" stroke="#025253" stroke-width="1.05788" stroke-linecap="round" stroke-linejoin="round"/>
<path d="M44.5149 135.033C44.0367 133.495 43.5582 131.957 43.0801 130.42" stroke="#025253" stroke-width="1.05788" stroke-linecap="round" stroke-linejoin="round"/>
<path d="M56.8359 124.068L60.6712 121.439" stroke="#025253" stroke-width="1.05788" stroke-linecap="round" stroke-linejoin="round"/>
<path d="M26.9511 112.069C18.2679 107.834 6.93564 117.538 4.67503 125.657C2.50906 133.131 16.081 146.598 19.1839 135.166C17.3679 128.561 8.65241 132.826 8.88694 138.556C8.77244 144.871 11.9196 159.123 1.22852 156.902" stroke="#272727" stroke-width="1.05788" stroke-linecap="round" stroke-linejoin="round"/>
<path d="M157.723 39.2651C159.2 41.2123 160.423 43.4784 160.509 45.9211C160.596 48.3639 159.285 50.9741 156.984 51.7982C154.683 52.6224 151.665 50.9473 151.655 48.5032C151.651 47.6032 152.16 46.6074 153.045 46.4421C154.239 46.2189 155.107 47.5207 155.596 48.6332C156.424 50.5141 157.141 52.8448 155.912 54.4909C155.145 55.5171 153.839 55.9417 152.726 56.5763C149.244 58.563 147.564 63.2224 148.978 66.9744" stroke="#272727" stroke-width="1.05788" stroke-linecap="round" stroke-linejoin="round"/>
<path d="M239.451 108.296C238.603 109.491 238.168 110.93 238.215 112.395C238.262 113.859 238.787 115.268 239.71 116.406C240.691 117.558 242.079 118.377 242.796 119.709C244.106 122.145 242.656 125.147 240.895 127.279C240.083 128.262 239.126 129.23 237.887 129.536C236.648 129.843 235.102 129.205 234.856 127.953C234.546 126.38 236.273 125.214 237.781 124.674C239.036 124.224 240.445 123.881 241.678 124.39C242.794 124.851 243.551 125.956 243.851 127.126C244.15 128.296 244.048 129.531 243.851 130.722C243.472 133.007 242.657 135.37 240.838 136.804C239.02 138.238 235.989 138.291 234.637 136.411" stroke="#272727" stroke-width="1.05788" stroke-linecap="round" stroke-linejoin="round"/>
<path d="M195.363 90.7785C198.713 86.3044 198.937 79.7273 195.898 75.0361" stroke="#272727" stroke-width="1.05788" stroke-linecap="round" stroke-linejoin="round"/>
<path d="M113.425 23.8073C113.19 21.7313 112.956 19.6555 112.721 17.5801" stroke="#272727" stroke-width="1.05788" stroke-linecap="round" stroke-linejoin="round"/>
<path d="M110.262 21.2199C112.2 20.6142 114.184 20.1628 116.194 19.8706" stroke="#272727" stroke-width="1.05788" stroke-linecap="round" stroke-linejoin="round"/>
<path d="M101.353 8.21357L97.7129 2.18359" stroke="#272727" stroke-width="1.05788" stroke-linecap="round" stroke-linejoin="round"/>
<path d="M96.7539 7.10735C98.6384 5.4531 100.4 3.66351 102.024 1.75293L101.678 2.36354" stroke="#272727" stroke-width="1.05788" stroke-linecap="round" stroke-linejoin="round"/>
<path d="M204.049 68.6065C204.391 67.2153 205.075 65.932 206.04 64.873" stroke="#272727" stroke-width="1.05788" stroke-linecap="round" stroke-linejoin="round"/>
<path d="M206.569 67.8081L202.834 65.5698" stroke="#272727" stroke-width="1.05788" stroke-linecap="round" stroke-linejoin="round"/>
<path d="M115.416 62.8349C120.99 59.9615 126.329 56.6554 131.385 52.9468" stroke="#272727" stroke-width="1.05788" stroke-linecap="round" stroke-linejoin="round"/>
<path d="M110.209 60.1425L112.706 52.4292" stroke="#272727" stroke-width="1.05788" stroke-linecap="round" stroke-linejoin="round"/>
<path d="M118.479 68.2632C120.837 69.5459 123.286 70.6568 125.804 71.5875" stroke="#272727" stroke-width="1.05788" stroke-linecap="round" stroke-linejoin="round"/>
<path d="M122.534 4.88795L125.731 6.83004C125.773 6.85514 125.805 6.89212 125.824 6.93599C125.844 6.98014 125.85 7.02897 125.84 7.07616C125.831 7.12334 125.808 7.16666 125.773 7.20032C125.739 7.23371 125.695 7.25578 125.647 7.26351L121.955 7.86639C121.909 7.87412 121.867 7.89509 121.832 7.92682C121.798 7.95855 121.775 7.99938 121.764 8.04463L120.905 11.6868C120.894 11.7337 120.868 11.7759 120.833 11.8079C120.797 11.8402 120.752 11.8603 120.704 11.8664C120.657 11.8722 120.608 11.8634 120.566 11.8407C120.523 11.8184 120.489 11.7833 120.467 11.7406L118.752 8.41326C118.731 8.37215 118.698 8.33794 118.657 8.31531C118.617 8.29296 118.57 8.28275 118.524 8.28662L114.796 8.59454C114.748 8.59868 114.7 8.58764 114.658 8.56364C114.617 8.53936 114.583 8.50321 114.563 8.45962C114.543 8.41602 114.536 8.36719 114.545 8.31973C114.553 8.27254 114.575 8.22867 114.609 8.19446L117.242 5.53663C117.274 5.50358 117.297 5.46159 117.305 5.41589C117.314 5.37023 117.31 5.32294 117.292 5.28003L115.847 1.82938C115.828 1.78501 115.823 1.73606 115.834 1.68907C115.844 1.64208 115.868 1.59931 115.903 1.56654C115.938 1.53376 115.983 1.51251 116.03 1.5057C116.078 1.49885 116.126 1.50677 116.169 1.52835L119.511 3.21146C119.552 3.23235 119.599 3.24049 119.645 3.23483C119.691 3.2292 119.735 3.21002 119.77 3.17973L122.606 0.739218C122.642 0.707791 122.687 0.688283 122.735 0.683372C122.783 0.678433 122.831 0.688284 122.873 0.711627C122.915 0.734969 122.949 0.770646 122.97 0.813855C122.992 0.857091 122.999 0.905764 122.992 0.953332L122.425 4.65066C122.417 4.69663 122.423 4.74381 122.443 4.78611C122.462 4.82843 122.494 4.86389 122.534 4.88795Z" fill="#025253"/>
<path d="M200.47 58.1545C200.235 56.0787 200 54.003 199.766 51.9272" stroke="#272727" stroke-width="1.05788" stroke-linecap="round" stroke-linejoin="round"/>
<path d="M197.307 55.568C199.245 54.9621 201.229 54.5109 203.239 54.2188" stroke="#272727" stroke-width="1.05788" stroke-linecap="round" stroke-linejoin="round"/>
<path d="M51.4725 86.5269C59.1246 86.5269 65.3278 78.1505 65.3278 67.8179C65.3278 57.4853 59.1246 49.1089 51.4725 49.1089C43.8204 49.1089 37.6172 57.4853 37.6172 67.8179C37.6172 78.1505 43.8204 86.5269 51.4725 86.5269Z" fill="#C55938" stroke="#272727" stroke-width="0.827759" stroke-miterlimit="10"/>
<g opacity="0.1">
<path d="M47.9312 49.7267C47.0276 49.9218 46.3521 50.5724 45.5914 51.0624C44.752 51.5503 43.9803 52.146 43.296 52.8344C42.0508 54.233 40.9777 55.776 40.1003 57.4301C38.0913 61.1719 37.0685 65.1716 37.4468 69.4351C37.8331 73.7745 39.1776 78.0744 42.0729 81.3926C44.2846 83.9272 48.7349 88.2197 52.4306 85.8482C53.5635 85.1214 53.4929 83.6408 52.4306 82.9C51.2254 82.0595 49.7614 81.8178 48.5975 80.8546C47.4285 79.9118 46.4862 78.7187 45.84 77.3628C44.4358 74.4105 43.0678 71.6381 42.8101 68.3069C42.5717 65.2254 42.8653 61.9558 43.9138 59.0382C44.4656 57.5995 45.1742 56.2257 46.0262 54.9419C46.4746 54.2245 46.8294 53.4563 47.2618 52.7345C47.6884 52.0218 48.3691 51.4956 48.7043 50.7347C48.7681 50.6166 48.7962 50.4825 48.7854 50.3484C48.7747 50.2145 48.7253 50.0868 48.6436 49.9803C48.5617 49.8738 48.4507 49.7932 48.3241 49.7485C48.1975 49.7035 48.0606 49.6964 47.9301 49.7275L47.9312 49.7267Z" fill="#272727"/>
</g>
<g opacity="0.1">
<path d="M66.3656 81.9583C66.2958 82.2328 66.29 82.5195 66.3488 82.7965C66.4078 83.0736 66.5295 83.3332 66.705 83.5553C66.8581 83.818 67.078 84.0357 67.3418 84.1863C67.6059 84.3373 67.905 84.4162 68.209 84.4148C68.5131 84.4137 68.8114 84.3326 69.0743 84.1797C69.337 84.0269 69.5552 83.8075 69.7064 83.5437C69.8576 83.2799 69.9371 82.9811 69.9366 82.6771C69.9357 82.373 69.8552 82.0745 69.7029 81.8115C69.5503 81.5483 69.3315 81.33 69.068 81.1783C68.8045 81.0262 68.5059 80.9465 68.2018 80.9465C67.4734 80.8698 66.5825 81.1758 66.3656 81.9583Z" fill="#272727"/>
</g>
<g opacity="0.1">
<path d="M69.3542 87.3588C69.3297 88.5886 69.9295 89.6898 70.3936 90.7987C70.8823 91.9656 71.2926 93.1697 71.6629 94.3793C72.0381 95.5964 72.327 96.8381 72.5271 98.0957C72.7232 99.3517 72.7039 100.63 72.9481 101.876C73.1319 102.814 74.1812 103.375 75.0625 103.255C76.0875 103.117 76.6093 102.331 76.7334 101.363C77.0692 98.7414 76.2122 95.5818 75.4132 93.0971C74.6983 90.8743 73.4903 87.3688 71.2426 86.2742C70.3925 85.8603 69.3747 86.357 69.3548 87.3577L69.3542 87.3588Z" fill="#272727"/>
</g>
</g>
</svg>
